<svg width="26" height="21" viewBox="0 0 26 21" fill="none" xmlns="http://www.w3.org/2000/svg">
<path d="M1 6.24219L3.47048 5.58022C5.1299 5.13558 6.83558 6.12036 7.28022 7.77977L8.60415 12.7207C9.04879 14.3802 10.7545 15.3649 12.4139 14.9203L25 11.5479" stroke="#0302D9" stroke-width="1.03688" stroke-linecap="round"/>
<path d="M14.3376 2.19922H21.1552M10.3629 3.27066H21.734M7.83984 4.58404H22.0796M8.18547 5.72461H22.3907M8.42741 6.79605H22.7018M8.73847 7.86749H22.9783M9.01497 8.90437H23.2548M9.30013 9.94124H23.5203M9.60254 11.0127H21.261M10.0864 12.0496H17.3791M11.2961 12.9828H13.9072" stroke="#B70000" stroke-width="0.345626"/>
<path d="M19.5565 1.57575L19.5565 11.2187M18.4851 1.4375L18.4851 11.5298M17.1717 1.57575L17.1717 11.8409M16.0311 1.92151L16.0311 12.1174M14.9597 2.19801L14.9597 12.4282M13.8883 2.43995L13.8883 12.8432M12.8514 2.75101L12.8514 12.8432M11.8145 3.02752L11.8145 7.93535L11.8145 12.8432M10.7431 3.33859L10.7431 3.34926M9.70618 3.68422L9.70618 10.1475M8.77299 4.06441L8.77299 6.67551M10.7431 12.1174L10.7431 3.54582M20.5243 10.9422L20.5243 2.05963M21.6303 10.6657L21.6303 4.34076M22.5635 10.3892L22.5635 7.58965" stroke="#B70000" stroke-width="0.345626"/>
<path d="M15.0981 14.917C15.6515 14.9173 16.1001 15.3665 16.1001 15.9199C16.0998 16.4731 15.6513 16.9216 15.0981 16.9219C14.5447 16.9219 14.0955 16.4733 14.0952 15.9199C14.0952 15.3664 14.5446 14.917 15.0981 14.917Z" stroke="#0302D9" stroke-width="0.553002"/>
<path d="M22.8403 12.8428C23.3937 12.843 23.8423 13.2923 23.8423 13.8457C23.842 14.3989 23.3935 14.8474 22.8403 14.8477C22.2869 14.8477 21.8377 14.399 21.8374 13.8457C21.8374 13.2921 22.2868 12.8428 22.8403 12.8428Z" stroke="#0302D9" stroke-width="0.553002"/>
<path d="M18.2836 1.41253C19.7246 1.02648 21.2056 1.88165 21.5919 3.32254L23.4248 10.1633L13.0581 12.941C11.6172 13.327 10.136 12.4719 9.74986 11.031L7.91689 4.19028L18.2836 1.41253Z" stroke="#0302D9" stroke-width="1.16814"/>
<path d="M4.06934 20C6.06934 15.5 13.0693 20.5 21.0693 17" stroke="url(#paint0_linear_1900_66)" stroke-width="0.2"/>
<path d="M8.06934 20.2953C9.12816 17.9129 12.834 20.56 17.0693 18.707" stroke="url(#paint1_linear_1900_66)" stroke-width="0.105882"/>
<defs>
<linearGradient id="paint0_linear_1900_66" x1="12.5693" y1="17" x2="12.5693" y2="20" gradientUnits="userSpaceOnUse">
<stop/>
<stop offset="1" stop-opacity="0"/>
</linearGradient>
<linearGradient id="paint1_linear_1900_66" x1="12.5693" y1="18.707" x2="12.5693" y2="20.2953" gradientUnits="userSpaceOnUse">
<stop/>
<stop offset="1" stop-opacity="0"/>
</linearGradient>
</defs>
</svg>
