<svg width="32" height="14" viewBox="0 0 32 14" fill="none" xmlns="http://www.w3.org/2000/svg">
<path d="M1.504 4.048C1.504 3.968 1.528 3.902 1.576 3.85C1.624 3.798 1.686 3.758 1.762 3.73C1.838 3.702 1.912 3.688 1.984 3.688C2.152 3.688 2.278 3.718 2.362 3.778C2.446 3.838 2.488 3.928 2.488 4.048C2.488 4.32 2.48 4.564 2.464 4.78C2.452 4.992 2.436 5.198 2.416 5.398C2.4 5.594 2.384 5.8 2.368 6.016C2.352 6.232 2.34 6.48 2.332 6.76C2.328 6.872 2.282 6.954 2.194 7.006C2.106 7.062 1.986 7.09 1.834 7.09C1.694 7.09 1.588 7.07 1.516 7.03C1.444 6.99 1.396 6.942 1.372 6.886C1.348 6.826 1.336 6.766 1.336 6.706C1.336 6.67 1.34 6.582 1.348 6.442C1.36 6.302 1.374 6.13 1.39 5.926C1.406 5.722 1.422 5.506 1.438 5.278C1.458 5.05 1.474 4.828 1.486 4.612C1.498 4.396 1.504 4.208 1.504 4.048ZM1.486 2.734C1.486 2.622 1.51 2.524 1.558 2.44C1.606 2.356 1.67 2.292 1.75 2.248C1.834 2.2 1.926 2.176 2.026 2.176C2.198 2.176 2.328 2.204 2.416 2.26C2.508 2.312 2.57 2.376 2.602 2.452C2.634 2.528 2.65 2.6 2.65 2.668C2.65 2.836 2.592 2.97 2.476 3.07C2.364 3.166 2.218 3.214 2.038 3.214C1.874 3.214 1.74 3.174 1.636 3.094C1.536 3.01 1.486 2.89 1.486 2.734ZM3.6137 7.12C3.4577 7.12 3.3217 7.078 3.2057 6.994C3.0937 6.91 3.0377 6.796 3.0377 6.652C3.0377 6.54 3.0617 6.436 3.1097 6.34C3.1577 6.244 3.2277 6.166 3.3197 6.106C3.4157 6.042 3.5317 6.01 3.6677 6.01C3.8557 6.01 3.9957 6.06 4.0877 6.16C4.1797 6.26 4.2257 6.382 4.2257 6.526C4.2257 6.69 4.1657 6.83 4.0457 6.946C3.9297 7.062 3.7857 7.12 3.6137 7.12ZM5.06191 2.368C5.06991 2.264 5.10991 2.188 5.18191 2.14C5.25791 2.092 5.39791 2.068 5.60191 2.068C5.77791 2.068 5.89191 2.104 5.94391 2.176C5.99591 2.244 6.02191 2.326 6.02191 2.422C6.02191 2.518 6.00991 2.66 5.98591 2.848C5.96191 3.032 5.93391 3.286 5.90191 3.61C5.87391 3.93 5.84991 4.338 5.82991 4.834C5.84991 4.822 5.89191 4.792 5.95591 4.744C6.01991 4.692 6.09591 4.63 6.18391 4.558C6.27191 4.486 6.36791 4.408 6.47191 4.324C6.57591 4.24 6.67991 4.156 6.78391 4.072C6.88791 3.984 6.98591 3.904 7.07791 3.832C7.13791 3.78 7.19391 3.744 7.24591 3.724C7.29791 3.7 7.35791 3.688 7.42591 3.688C7.51391 3.688 7.58791 3.708 7.64791 3.748C7.70791 3.784 7.75391 3.832 7.78591 3.892C7.82191 3.948 7.84591 4.004 7.85791 4.06C7.87391 4.112 7.88191 4.156 7.88191 4.192C7.88191 4.232 7.87391 4.272 7.85791 4.312C7.84591 4.352 7.81391 4.392 7.76191 4.432C7.70991 4.472 7.64991 4.518 7.58191 4.57C7.51391 4.618 7.44191 4.672 7.36591 4.732C7.28991 4.788 7.21191 4.846 7.13191 4.906C7.05191 4.966 6.97391 5.024 6.89791 5.08C6.82191 5.136 6.74991 5.19 6.68191 5.242C6.73391 5.322 6.78791 5.41 6.84391 5.506C6.90391 5.602 6.96191 5.696 7.01791 5.788C7.06991 5.868 7.11791 5.936 7.16191 5.992C7.20591 6.048 7.24791 6.09 7.28791 6.118C7.33191 6.146 7.37791 6.16 7.42591 6.16C7.48191 6.16 7.53591 6.136 7.58791 6.088C7.64391 6.036 7.70191 5.974 7.76191 5.902C7.79391 5.862 7.82991 5.83 7.86991 5.806C7.90991 5.782 7.95191 5.77 7.99591 5.77C8.07191 5.77 8.14191 5.792 8.20591 5.836C8.26991 5.876 8.32191 5.928 8.36191 5.992C8.40191 6.056 8.42191 6.122 8.42191 6.19C8.42191 6.258 8.40391 6.324 8.36791 6.388C8.33191 6.452 8.28591 6.508 8.22991 6.556C8.15391 6.632 8.05991 6.708 7.94791 6.784C7.83991 6.86 7.72191 6.924 7.59391 6.976C7.46991 7.024 7.33991 7.048 7.20391 7.048C7.05191 7.048 6.91991 7.02 6.80791 6.964C6.69591 6.904 6.59391 6.824 6.50191 6.724C6.41391 6.624 6.32791 6.508 6.24391 6.376C6.14391 6.208 6.06391 6.064 6.00391 5.944C5.94391 5.82 5.87991 5.7 5.81191 5.584C5.80791 5.796 5.80191 6 5.79391 6.196C5.78591 6.392 5.77991 6.572 5.77591 6.736C5.77191 6.86 5.73391 6.946 5.66191 6.994C5.58991 7.038 5.47991 7.06 5.33191 7.06C5.14391 7.06 5.00791 7.038 4.92391 6.994C4.84391 6.946 4.80591 6.86 4.80991 6.736C4.83391 6.02 4.86591 5.288 4.90591 4.54C4.94591 3.788 4.99791 3.064 5.06191 2.368ZM9.29144 7.12C9.13544 7.12 8.99944 7.078 8.88344 6.994C8.77144 6.91 8.71544 6.796 8.71544 6.652C8.71544 6.54 8.73944 6.436 8.78744 6.34C8.83544 6.244 8.90544 6.166 8.99744 6.106C9.09344 6.042 9.20944 6.01 9.34544 6.01C9.53344 6.01 9.67344 6.06 9.76544 6.16C9.85744 6.26 9.90344 6.382 9.90344 6.526C9.90344 6.69 9.84344 6.83 9.72344 6.946C9.60744 7.062 9.46344 7.12 9.29144 7.12ZM10.6316 2.404C10.6356 2.276 10.6776 2.188 10.7576 2.14C10.8376 2.092 10.9556 2.068 11.1116 2.068C11.2756 2.068 11.3896 2.102 11.4536 2.17C11.5216 2.234 11.5556 2.308 11.5556 2.392C11.5556 2.472 11.5536 2.554 11.5496 2.638C11.5496 2.718 11.5496 2.82 11.5496 2.944C11.5496 3.064 11.5476 3.228 11.5436 3.436C11.5436 3.644 11.5416 3.914 11.5376 4.246C11.6176 4.13 11.7056 4.032 11.8016 3.952C11.8976 3.868 12.0036 3.804 12.1196 3.76C12.2396 3.716 12.3716 3.694 12.5156 3.694C12.7476 3.694 12.9296 3.742 13.0616 3.838C13.1936 3.93 13.2896 4.048 13.3496 4.192C13.4136 4.336 13.4536 4.486 13.4696 4.642C13.4896 4.798 13.5016 4.938 13.5056 5.062C13.5136 5.358 13.5076 5.604 13.4876 5.8C13.4716 5.996 13.4636 6.156 13.4636 6.28C13.4636 6.388 13.4676 6.484 13.4756 6.568C13.4836 6.648 13.4896 6.72 13.4936 6.784C13.4976 6.86 13.4596 6.928 13.3796 6.988C13.3036 7.044 13.1776 7.072 13.0016 7.072C12.8416 7.072 12.7296 7.046 12.6656 6.994C12.6016 6.942 12.5636 6.856 12.5516 6.736C12.5436 6.664 12.5396 6.568 12.5396 6.448C12.5436 6.324 12.5476 6.192 12.5516 6.052C12.5556 5.912 12.5596 5.776 12.5636 5.644C12.5716 5.508 12.5756 5.39 12.5756 5.29C12.5756 5.026 12.5556 4.842 12.5156 4.738C12.4756 4.63 12.3916 4.576 12.2636 4.576C12.1756 4.576 12.0856 4.608 11.9936 4.672C11.9056 4.732 11.8236 4.814 11.7476 4.918C11.6756 5.018 11.6176 5.132 11.5736 5.26C11.5616 5.516 11.5516 5.766 11.5436 6.01C11.5396 6.254 11.5336 6.472 11.5256 6.664C11.5216 6.792 11.4756 6.884 11.3876 6.94C11.3036 6.992 11.1836 7.018 11.0276 7.018C10.8676 7.018 10.7496 6.992 10.6736 6.94C10.5976 6.888 10.5556 6.822 10.5476 6.742C10.5316 6.646 10.5236 6.546 10.5236 6.442C10.5236 6.334 10.5256 6.23 10.5296 6.13C10.5376 5.97 10.5476 5.816 10.5596 5.668C10.5756 5.52 10.5996 5.364 10.6316 5.2C10.6276 4.796 10.6236 4.45 10.6196 4.162C10.6156 3.87 10.6136 3.626 10.6136 3.43C10.6136 3.234 10.6136 3.072 10.6136 2.944C10.6176 2.816 10.6196 2.71 10.6196 2.626C10.6236 2.542 10.6276 2.468 10.6316 2.404ZM14.641 7.12C14.485 7.12 14.349 7.078 14.233 6.994C14.121 6.91 14.065 6.796 14.065 6.652C14.065 6.54 14.089 6.436 14.137 6.34C14.185 6.244 14.255 6.166 14.347 6.106C14.443 6.042 14.559 6.01 14.695 6.01C14.883 6.01 15.023 6.06 15.115 6.16C15.207 6.26 15.253 6.382 15.253 6.526C15.253 6.69 15.193 6.83 15.073 6.946C14.957 7.062 14.813 7.12 14.641 7.12ZM16.8229 7.078C16.6429 7.078 16.4869 7.042 16.3549 6.97C16.2229 6.894 16.1129 6.79 16.0249 6.658C15.9409 6.526 15.8789 6.372 15.8389 6.196C15.7989 6.02 15.7789 5.83 15.7789 5.626C15.7789 5.322 15.7949 5.044 15.8269 4.792C15.8589 4.536 15.8989 4.28 15.9469 4.024C15.9589 3.94 16.0049 3.866 16.0849 3.802C16.1649 3.734 16.2909 3.7 16.4629 3.7C16.6389 3.7 16.7629 3.738 16.8349 3.814C16.9109 3.89 16.9409 3.986 16.9249 4.102C16.9009 4.25 16.8749 4.392 16.8469 4.528C16.8189 4.66 16.7949 4.804 16.7749 4.96C16.7549 5.112 16.7449 5.294 16.7449 5.506C16.7449 5.65 16.7549 5.774 16.7749 5.878C16.7949 5.982 16.8289 6.064 16.8769 6.124C16.9249 6.18 16.9909 6.208 17.0749 6.208C17.1589 6.208 17.2369 6.178 17.3089 6.118C17.3809 6.058 17.4469 5.98 17.5069 5.884C17.5669 5.788 17.6189 5.684 17.6629 5.572C17.7109 5.456 17.7489 5.344 17.7769 5.236C17.7689 5.012 17.7629 4.794 17.7589 4.582C17.7589 4.366 17.7629 4.174 17.7709 4.006C17.7789 3.918 17.8209 3.844 17.8969 3.784C17.9769 3.724 18.1009 3.694 18.2689 3.694C18.4209 3.694 18.5329 3.716 18.6049 3.76C18.6769 3.8 18.7249 3.854 18.7489 3.922C18.7729 3.99 18.7849 4.064 18.7849 4.144C18.7889 4.212 18.7889 4.284 18.7849 4.36C18.7849 4.436 18.7809 4.516 18.7729 4.6C18.7689 4.684 18.7609 4.768 18.7489 4.852C18.7369 4.936 18.7229 5.02 18.7069 5.104C18.7149 5.504 18.7169 5.834 18.7129 6.094C18.7089 6.354 18.7049 6.584 18.7009 6.784C18.6969 6.892 18.6509 6.968 18.5629 7.012C18.4789 7.056 18.3549 7.078 18.1909 7.078C18.0349 7.078 17.9249 7.048 17.8609 6.988C17.8009 6.928 17.7709 6.866 17.7709 6.802C17.7709 6.762 17.7749 6.72 17.7829 6.676C17.7909 6.632 17.7989 6.582 17.8069 6.526C17.8149 6.466 17.8169 6.4 17.8129 6.328C17.7769 6.404 17.7329 6.486 17.6809 6.574C17.6329 6.658 17.5709 6.74 17.4949 6.82C17.4229 6.896 17.3309 6.958 17.2189 7.006C17.1109 7.054 16.9789 7.078 16.8229 7.078ZM19.9086 7.12C19.7526 7.12 19.6166 7.078 19.5006 6.994C19.3886 6.91 19.3326 6.796 19.3326 6.652C19.3326 6.54 19.3566 6.436 19.4046 6.34C19.4526 6.244 19.5226 6.166 19.6146 6.106C19.7106 6.042 19.8266 6.01 19.9626 6.01C20.1506 6.01 20.2906 6.06 20.3826 6.16C20.4746 6.26 20.5206 6.382 20.5206 6.526C20.5206 6.69 20.4606 6.83 20.3406 6.946C20.2246 7.062 20.0806 7.12 19.9086 7.12ZM21.3568 2.368C21.3648 2.264 21.4048 2.188 21.4768 2.14C21.5528 2.092 21.6928 2.068 21.8968 2.068C22.0728 2.068 22.1868 2.104 22.2388 2.176C22.2908 2.244 22.3168 2.326 22.3168 2.422C22.3168 2.518 22.3048 2.66 22.2808 2.848C22.2568 3.032 22.2288 3.286 22.1968 3.61C22.1688 3.93 22.1448 4.338 22.1248 4.834C22.1448 4.822 22.1868 4.792 22.2508 4.744C22.3148 4.692 22.3908 4.63 22.4788 4.558C22.5668 4.486 22.6628 4.408 22.7668 4.324C22.8708 4.24 22.9748 4.156 23.0788 4.072C23.1828 3.984 23.2808 3.904 23.3728 3.832C23.4328 3.78 23.4888 3.744 23.5408 3.724C23.5928 3.7 23.6528 3.688 23.7208 3.688C23.8088 3.688 23.8828 3.708 23.9428 3.748C24.0028 3.784 24.0488 3.832 24.0808 3.892C24.1168 3.948 24.1408 4.004 24.1528 4.06C24.1688 4.112 24.1768 4.156 24.1768 4.192C24.1768 4.232 24.1688 4.272 24.1528 4.312C24.1408 4.352 24.1088 4.392 24.0568 4.432C24.0048 4.472 23.9448 4.518 23.8768 4.57C23.8088 4.618 23.7368 4.672 23.6608 4.732C23.5848 4.788 23.5068 4.846 23.4268 4.906C23.3468 4.966 23.2688 5.024 23.1928 5.08C23.1168 5.136 23.0448 5.19 22.9768 5.242C23.0288 5.322 23.0828 5.41 23.1388 5.506C23.1988 5.602 23.2568 5.696 23.3128 5.788C23.3648 5.868 23.4128 5.936 23.4568 5.992C23.5008 6.048 23.5428 6.09 23.5828 6.118C23.6268 6.146 23.6728 6.16 23.7208 6.16C23.7768 6.16 23.8308 6.136 23.8828 6.088C23.9388 6.036 23.9968 5.974 24.0568 5.902C24.0888 5.862 24.1248 5.83 24.1648 5.806C24.2048 5.782 24.2468 5.77 24.2908 5.77C24.3668 5.77 24.4368 5.792 24.5008 5.836C24.5648 5.876 24.6168 5.928 24.6568 5.992C24.6968 6.056 24.7168 6.122 24.7168 6.19C24.7168 6.258 24.6988 6.324 24.6628 6.388C24.6268 6.452 24.5808 6.508 24.5248 6.556C24.4488 6.632 24.3548 6.708 24.2428 6.784C24.1348 6.86 24.0168 6.924 23.8888 6.976C23.7648 7.024 23.6348 7.048 23.4988 7.048C23.3468 7.048 23.2148 7.02 23.1028 6.964C22.9908 6.904 22.8888 6.824 22.7968 6.724C22.7088 6.624 22.6228 6.508 22.5388 6.376C22.4388 6.208 22.3588 6.064 22.2988 5.944C22.2388 5.82 22.1748 5.7 22.1068 5.584C22.1028 5.796 22.0968 6 22.0888 6.196C22.0808 6.392 22.0748 6.572 22.0708 6.736C22.0668 6.86 22.0288 6.946 21.9568 6.994C21.8848 7.038 21.7748 7.06 21.6268 7.06C21.4388 7.06 21.3028 7.038 21.2188 6.994C21.1388 6.946 21.1008 6.86 21.1048 6.736C21.1288 6.02 21.1608 5.288 21.2008 4.54C21.2408 3.788 21.2928 3.064 21.3568 2.368ZM25.5864 7.12C25.4304 7.12 25.2944 7.078 25.1784 6.994C25.0664 6.91 25.0104 6.796 25.0104 6.652C25.0104 6.54 25.0344 6.436 25.0824 6.34C25.1304 6.244 25.2004 6.166 25.2924 6.106C25.3884 6.042 25.5044 6.01 25.6404 6.01C25.8284 6.01 25.9684 6.06 26.0604 6.16C26.1524 6.26 26.1984 6.382 26.1984 6.526C26.1984 6.69 26.1384 6.83 26.0184 6.946C25.9024 7.062 25.7584 7.12 25.5864 7.12ZM27.7683 7.078C27.5883 7.078 27.4323 7.042 27.3003 6.97C27.1683 6.894 27.0583 6.79 26.9703 6.658C26.8863 6.526 26.8243 6.372 26.7843 6.196C26.7443 6.02 26.7243 5.83 26.7243 5.626C26.7243 5.322 26.7403 5.044 26.7723 4.792C26.8043 4.536 26.8443 4.28 26.8923 4.024C26.9043 3.94 26.9503 3.866 27.0303 3.802C27.1103 3.734 27.2363 3.7 27.4083 3.7C27.5843 3.7 27.7083 3.738 27.7803 3.814C27.8563 3.89 27.8863 3.986 27.8703 4.102C27.8463 4.25 27.8203 4.392 27.7923 4.528C27.7643 4.66 27.7403 4.804 27.7203 4.96C27.7003 5.112 27.6903 5.294 27.6903 5.506C27.6903 5.65 27.7003 5.774 27.7203 5.878C27.7403 5.982 27.7743 6.064 27.8223 6.124C27.8703 6.18 27.9363 6.208 28.0203 6.208C28.1043 6.208 28.1823 6.178 28.2543 6.118C28.3263 6.058 28.3923 5.98 28.4523 5.884C28.5123 5.788 28.5643 5.684 28.6083 5.572C28.6563 5.456 28.6943 5.344 28.7223 5.236C28.7143 5.012 28.7083 4.794 28.7043 4.582C28.7043 4.366 28.7083 4.174 28.7163 4.006C28.7243 3.918 28.7663 3.844 28.8423 3.784C28.9223 3.724 29.0463 3.694 29.2143 3.694C29.3663 3.694 29.4783 3.716 29.5503 3.76C29.6223 3.8 29.6703 3.854 29.6943 3.922C29.7183 3.99 29.7303 4.064 29.7303 4.144C29.7343 4.212 29.7343 4.284 29.7303 4.36C29.7303 4.436 29.7263 4.516 29.7183 4.6C29.7143 4.684 29.7063 4.768 29.6943 4.852C29.6823 4.936 29.6683 5.02 29.6523 5.104C29.6603 5.504 29.6623 5.834 29.6583 6.094C29.6543 6.354 29.6503 6.584 29.6463 6.784C29.6423 6.892 29.5963 6.968 29.5083 7.012C29.4243 7.056 29.3003 7.078 29.1363 7.078C28.9803 7.078 28.8703 7.048 28.8063 6.988C28.7463 6.928 28.7163 6.866 28.7163 6.802C28.7163 6.762 28.7203 6.72 28.7283 6.676C28.7363 6.632 28.7443 6.582 28.7523 6.526C28.7603 6.466 28.7623 6.4 28.7583 6.328C28.7223 6.404 28.6783 6.486 28.6263 6.574C28.5783 6.658 28.5163 6.74 28.4403 6.82C28.3683 6.896 28.2763 6.958 28.1643 7.006C28.0563 7.054 27.9243 7.078 27.7683 7.078Z" fill="black"/>
<path d="M1.782 12.036C1.674 12.036 1.565 12.024 1.455 12C1.347 11.976 1.249 11.943 1.161 11.901C1.127 11.885 1.107 11.862 1.101 11.832C1.095 11.8 1.104 11.762 1.128 11.718C1.144 11.684 1.165 11.663 1.191 11.655C1.217 11.647 1.246 11.652 1.278 11.67C1.346 11.706 1.426 11.735 1.518 11.757C1.612 11.777 1.705 11.787 1.797 11.787C1.909 11.787 2.013 11.77 2.109 11.736C2.207 11.7 2.292 11.649 2.364 11.583C2.436 11.517 2.492 11.44 2.532 11.352C2.574 11.262 2.595 11.164 2.595 11.058C2.595 10.958 2.576 10.871 2.538 10.797C2.5 10.721 2.443 10.656 2.367 10.602C2.293 10.548 2.199 10.507 2.085 10.479C2.051 10.499 2.013 10.514 1.971 10.524C1.931 10.534 1.895 10.539 1.863 10.539C1.813 10.539 1.772 10.525 1.74 10.497C1.708 10.469 1.692 10.436 1.692 10.398C1.692 10.364 1.702 10.334 1.722 10.308C1.744 10.28 1.772 10.259 1.806 10.245C1.842 10.229 1.882 10.221 1.926 10.221C1.956 10.221 1.988 10.225 2.022 10.233C2.058 10.239 2.092 10.249 2.124 10.263C2.204 10.241 2.279 10.212 2.349 10.176C2.421 10.14 2.485 10.099 2.541 10.053C2.597 10.005 2.645 9.953 2.685 9.897C2.727 9.839 2.758 9.778 2.778 9.714C2.8 9.65 2.811 9.584 2.811 9.516C2.811 9.454 2.798 9.4 2.772 9.354C2.746 9.306 2.707 9.269 2.655 9.243C2.605 9.217 2.541 9.204 2.463 9.204C2.377 9.204 2.287 9.224 2.193 9.264C2.101 9.304 2.009 9.362 1.917 9.438C1.825 9.514 1.736 9.606 1.65 9.714C1.564 9.822 1.483 9.943 1.407 10.077C1.333 10.209 1.269 10.353 1.215 10.509L0.747 11.958C0.739 11.986 0.723 12.007 0.699 12.021C0.675 12.035 0.64 12.042 0.594 12.042C0.55 12.042 0.517 12.035 0.495 12.021C0.473 12.007 0.467 11.984 0.477 11.952L1.254 9.567C1.204 9.617 1.151 9.665 1.095 9.711C1.039 9.757 0.98 9.803 0.918 9.849C0.858 9.893 0.794 9.939 0.726 9.987C0.684 10.015 0.649 10.024 0.621 10.014C0.593 10.004 0.568 9.981 0.546 9.945C0.526 9.913 0.518 9.883 0.522 9.855C0.526 9.825 0.547 9.799 0.585 9.777C0.703 9.703 0.812 9.628 0.912 9.552C1.014 9.474 1.107 9.393 1.191 9.309C1.275 9.223 1.348 9.134 1.41 9.042C1.434 9.008 1.456 8.985 1.476 8.973C1.496 8.961 1.528 8.955 1.572 8.955C1.618 8.955 1.651 8.962 1.671 8.976C1.693 8.99 1.698 9.013 1.686 9.045L1.53 9.525C1.604 9.433 1.68 9.352 1.758 9.282C1.838 9.212 1.918 9.153 1.998 9.105C2.08 9.055 2.161 9.018 2.241 8.994C2.323 8.968 2.403 8.955 2.481 8.955C2.607 8.955 2.714 8.978 2.802 9.024C2.892 9.068 2.961 9.132 3.009 9.216C3.059 9.298 3.084 9.396 3.084 9.51C3.084 9.612 3.065 9.71 3.027 9.804C2.989 9.896 2.936 9.981 2.868 10.059C2.8 10.135 2.72 10.2 2.628 10.254C2.538 10.308 2.44 10.347 2.334 10.371L2.328 10.377C2.442 10.413 2.539 10.465 2.619 10.533C2.701 10.601 2.763 10.682 2.805 10.776C2.847 10.868 2.868 10.97 2.868 11.082C2.868 11.22 2.84 11.347 2.784 11.463C2.728 11.579 2.65 11.68 2.55 11.766C2.45 11.852 2.334 11.919 2.202 11.967C2.072 12.013 1.932 12.036 1.782 12.036ZM3.47337 12.045C3.38137 12.045 3.30937 12.023 3.25737 11.979C3.20737 11.933 3.18037 11.866 3.17637 11.778C3.17237 11.688 3.19137 11.579 3.23337 11.451L3.53337 10.551C3.54737 10.511 3.56337 10.485 3.58137 10.473C3.60137 10.461 3.63037 10.455 3.66837 10.455C3.73037 10.455 3.76937 10.465 3.78537 10.485C3.80337 10.503 3.80537 10.532 3.79137 10.572L3.47337 11.52C3.45537 11.57 3.44337 11.617 3.43737 11.661C3.43337 11.705 3.44037 11.74 3.45837 11.766C3.47837 11.792 3.51537 11.805 3.56937 11.805C3.63937 11.805 3.71537 11.775 3.79737 11.715C3.87937 11.655 3.96337 11.571 4.04937 11.463C4.13737 11.355 4.22337 11.228 4.30737 11.082C4.39137 10.934 4.46937 10.772 4.54137 10.596L4.55637 10.551C4.57037 10.511 4.58637 10.485 4.60437 10.473C4.62437 10.461 4.65337 10.455 4.69137 10.455C4.75337 10.455 4.79237 10.465 4.80837 10.485C4.82637 10.503 4.82837 10.532 4.81437 10.572L4.49037 11.553C4.45637 11.657 4.44037 11.729 4.44237 11.769C4.44437 11.807 4.46837 11.826 4.51437 11.826C4.54237 11.826 4.56337 11.838 4.57737 11.862C4.59137 11.884 4.59637 11.91 4.59237 11.94C4.59037 11.968 4.57837 11.993 4.55637 12.015C4.53437 12.039 4.50237 12.051 4.46037 12.051C4.37237 12.051 4.30637 12.034 4.26237 12C4.22037 11.968 4.19437 11.927 4.18437 11.877C4.17437 11.825 4.17437 11.771 4.18437 11.715C4.19437 11.657 4.20737 11.604 4.22337 11.556L4.25637 11.46C4.19637 11.554 4.13437 11.637 4.07037 11.709C4.00637 11.781 3.94037 11.842 3.87237 11.892C3.80637 11.942 3.73937 11.98 3.67137 12.006C3.60537 12.032 3.53937 12.045 3.47337 12.045ZM4.46482 12.051C4.43682 12.051 4.41582 12.039 4.40182 12.015C4.38782 11.993 4.38282 11.968 4.38682 11.94C4.38882 11.91 4.40082 11.884 4.42282 11.862C4.44482 11.838 4.47682 11.826 4.51882 11.826C4.56682 11.826 4.62182 11.802 4.68382 11.754C4.74382 11.706 4.81482 11.631 4.89682 11.529C4.97882 11.425 5.07582 11.29 5.18782 11.124C5.29982 10.956 5.43082 10.753 5.58082 10.515C5.59882 10.487 5.62182 10.475 5.64982 10.479C5.67982 10.483 5.70382 10.496 5.72182 10.518C5.73982 10.54 5.74082 10.564 5.72482 10.59C5.55482 10.878 5.40782 11.117 5.28382 11.307C5.16182 11.495 5.05482 11.644 4.96282 11.754C4.87082 11.862 4.78582 11.939 4.70782 11.985C4.62782 12.029 4.54682 12.051 4.46482 12.051ZM5.37082 13.557C5.26482 13.557 5.17782 13.527 5.10982 13.467C5.04382 13.409 5.01082 13.333 5.01082 13.239C5.01082 13.169 5.02382 13.099 5.04982 13.029C5.07782 12.961 5.11782 12.892 5.16982 12.822C5.22182 12.752 5.28682 12.68 5.36482 12.606C5.44482 12.534 5.53682 12.458 5.64082 12.378C5.69282 12.34 5.74182 12.304 5.78782 12.27C5.83582 12.236 5.88382 12.202 5.93182 12.168C5.97982 12.136 6.02982 12.103 6.08182 12.069L6.28882 11.43C6.22682 11.528 6.16282 11.615 6.09682 11.691C6.03282 11.767 5.96682 11.832 5.89882 11.886C5.83082 11.938 5.76282 11.977 5.69482 12.003C5.62682 12.031 5.55782 12.045 5.48782 12.045C5.39582 12.045 5.32382 12.023 5.27182 11.979C5.22182 11.933 5.19482 11.866 5.19082 11.778C5.18682 11.688 5.20582 11.579 5.24782 11.451L5.54782 10.551C5.56182 10.511 5.57782 10.485 5.59582 10.473C5.61582 10.461 5.64482 10.455 5.68282 10.455C5.74482 10.455 5.78382 10.465 5.79982 10.485C5.81782 10.503 5.81982 10.532 5.80582 10.572L5.48782 11.52C5.46982 11.57 5.45782 11.617 5.45182 11.661C5.44782 11.705 5.45482 11.74 5.47282 11.766C5.49282 11.792 5.52982 11.805 5.58382 11.805C5.65382 11.805 5.72982 11.775 5.81182 11.715C5.89382 11.655 5.97782 11.571 6.06382 11.463C6.15182 11.355 6.23782 11.228 6.32182 11.082C6.40582 10.934 6.48382 10.773 6.55582 10.599L6.57082 10.551C6.58482 10.511 6.60082 10.485 6.61882 10.473C6.63882 10.461 6.66782 10.455 6.70582 10.455C6.76782 10.455 6.80682 10.465 6.82282 10.485C6.84082 10.503 6.84282 10.532 6.82882 10.572L6.12082 12.75C6.07482 12.894 6.02582 13.017 5.97382 13.119C5.92382 13.221 5.86982 13.304 5.81182 13.368C5.75382 13.434 5.68782 13.482 5.61382 13.512C5.54182 13.542 5.46082 13.557 5.37082 13.557ZM5.41582 13.326C5.47582 13.326 5.53182 13.306 5.58382 13.266C5.63582 13.226 5.68482 13.163 5.73082 13.077C5.77682 12.991 5.82182 12.878 5.86582 12.738L5.97682 12.399C5.94882 12.417 5.92082 12.436 5.89282 12.456C5.86482 12.476 5.83682 12.496 5.80882 12.516C5.78082 12.536 5.75282 12.557 5.72482 12.579C5.64482 12.645 5.57582 12.706 5.51782 12.762C5.46182 12.82 5.41582 12.874 5.37982 12.924C5.34582 12.974 5.31982 13.021 5.30182 13.065C5.28582 13.111 5.27782 13.155 5.27782 13.197C5.27782 13.221 5.28282 13.243 5.29282 13.263C5.30282 13.283 5.31782 13.298 5.33782 13.308C5.35982 13.32 5.38582 13.326 5.41582 13.326ZM6.27094 12.195C6.24494 12.209 6.22194 12.209 6.20194 12.195C6.17994 12.183 6.16494 12.164 6.15694 12.138C6.14894 12.112 6.14894 12.085 6.15694 12.057C6.16294 12.029 6.17994 12.008 6.20794 11.994C6.33194 11.924 6.44594 11.852 6.54994 11.778C6.65394 11.702 6.75094 11.622 6.84094 11.538C6.93094 11.454 7.01494 11.364 7.09294 11.268C7.17294 11.172 7.24994 11.069 7.32394 10.959C7.39994 10.847 7.47494 10.727 7.54894 10.599C7.56894 10.569 7.59194 10.554 7.61794 10.554C7.64394 10.554 7.66394 10.566 7.67794 10.59C7.69194 10.614 7.68894 10.644 7.66894 10.68C7.59094 10.828 7.51294 10.964 7.43494 11.088C7.35694 11.212 7.27594 11.326 7.19194 11.43C7.10994 11.534 7.02294 11.63 6.93094 11.718C6.83694 11.806 6.73594 11.89 6.62794 11.97C6.51994 12.048 6.40094 12.123 6.27094 12.195ZM7.44994 12.051C7.36194 12.051 7.29594 12.035 7.25194 12.003C7.20994 11.971 7.18394 11.93 7.17394 11.88C7.16394 11.828 7.16394 11.774 7.17394 11.718C7.18394 11.66 7.19694 11.606 7.21294 11.556L7.54294 10.551C7.55694 10.511 7.57294 10.485 7.59094 10.473C7.61094 10.461 7.63994 10.455 7.67794 10.455C7.73994 10.455 7.77894 10.465 7.79494 10.485C7.81294 10.503 7.81494 10.532 7.80094 10.572L7.47994 11.553C7.44394 11.659 7.42694 11.731 7.42894 11.769C7.43294 11.807 7.45794 11.826 7.50394 11.826C7.53194 11.826 7.55294 11.838 7.56694 11.862C7.58094 11.884 7.58594 11.91 7.58194 11.94C7.57994 11.968 7.56794 11.993 7.54594 12.015C7.52394 12.039 7.49194 12.051 7.44994 12.051ZM7.86394 9.993C7.82394 9.993 7.78994 9.98 7.76194 9.954C7.73394 9.928 7.71994 9.89 7.71994 9.84C7.71994 9.786 7.73694 9.735 7.77094 9.687C7.80694 9.639 7.86194 9.615 7.93594 9.615C7.97794 9.615 8.01294 9.628 8.04094 9.654C8.06894 9.678 8.08294 9.716 8.08294 9.768C8.08294 9.822 8.06494 9.873 8.02894 9.921C7.99494 9.969 7.93994 9.993 7.86394 9.993ZM7.44152 12.051C7.40952 12.051 7.38952 12.039 7.38152 12.015C7.37152 11.993 7.37152 11.968 7.38152 11.94C7.38952 11.91 7.40352 11.884 7.42352 11.862C7.44352 11.838 7.46552 11.826 7.48952 11.826C7.52552 11.826 7.56452 11.812 7.60652 11.784C7.64652 11.756 7.68852 11.715 7.73252 11.661C7.77452 11.607 7.81952 11.542 7.86752 11.466C7.91352 11.388 7.96152 11.3 8.01152 11.202C8.10152 11.03 8.18152 10.893 8.25152 10.791C8.32352 10.689 8.38952 10.613 8.44952 10.563C8.50952 10.513 8.56652 10.481 8.62052 10.467C8.67652 10.451 8.73252 10.443 8.78852 10.443C8.80852 10.443 8.82152 10.455 8.82752 10.479C8.83352 10.501 8.83252 10.527 8.82452 10.557C8.81652 10.585 8.80252 10.611 8.78252 10.635C8.76452 10.657 8.74052 10.668 8.71052 10.668C8.68852 10.668 8.66252 10.674 8.63252 10.686C8.60452 10.696 8.57152 10.72 8.53352 10.758C8.49752 10.794 8.45452 10.849 8.40452 10.923C8.35652 10.997 8.30052 11.096 8.23652 11.22C8.14252 11.408 8.05652 11.558 7.97852 11.67C7.90052 11.78 7.82952 11.863 7.76552 11.919C7.70152 11.973 7.64352 12.008 7.59152 12.024C7.53752 12.042 7.48752 12.051 7.44152 12.051ZM9.44852 12.051C9.36052 12.051 9.29452 12.034 9.25052 12C9.20852 11.968 9.18252 11.927 9.17252 11.877C9.16252 11.825 9.16252 11.771 9.17252 11.715C9.18252 11.657 9.19552 11.604 9.21152 11.556L9.41552 10.968C9.43352 10.916 9.44452 10.869 9.44852 10.827C9.45452 10.783 9.44752 10.748 9.42752 10.722C9.40952 10.696 9.37252 10.683 9.31652 10.683C9.25052 10.683 9.17652 10.712 9.09452 10.77C9.01452 10.828 8.93152 10.909 8.84552 11.013C8.76152 11.117 8.67752 11.241 8.59352 11.385C8.50952 11.527 8.43152 11.684 8.35952 11.856L8.32352 11.967C8.31552 11.993 8.30052 12.012 8.27852 12.024C8.25852 12.038 8.22552 12.045 8.17952 12.045C8.14752 12.045 8.11752 12.038 8.08952 12.024C8.06352 12.01 8.05652 11.984 8.06852 11.946L8.45852 10.74C8.46452 10.72 8.46352 10.703 8.45552 10.689C8.44952 10.675 8.43452 10.668 8.41052 10.668C8.38652 10.668 8.36952 10.657 8.35952 10.635C8.35152 10.611 8.35052 10.585 8.35652 10.557C8.36252 10.527 8.37652 10.501 8.39852 10.479C8.42052 10.455 8.44952 10.443 8.48552 10.443C8.55952 10.443 8.61352 10.457 8.64752 10.485C8.68352 10.511 8.70552 10.546 8.71352 10.59C8.72152 10.632 8.72152 10.677 8.71352 10.725C8.70552 10.773 8.69552 10.817 8.68352 10.857L8.62352 11.037C8.68552 10.941 8.74852 10.857 8.81252 10.785C8.87852 10.711 8.94452 10.649 9.01052 10.599C9.07652 10.547 9.14352 10.508 9.21152 10.482C9.27952 10.456 9.34752 10.443 9.41552 10.443C9.50752 10.443 9.57852 10.466 9.62852 10.512C9.67852 10.556 9.70652 10.622 9.71252 10.71C9.71852 10.798 9.69952 10.907 9.65552 11.037L9.47852 11.553C9.44252 11.657 9.42552 11.729 9.42752 11.769C9.43152 11.807 9.45752 11.826 9.50552 11.826C9.53352 11.826 9.55352 11.838 9.56552 11.862C9.57952 11.884 9.58452 11.91 9.58052 11.94C9.57852 11.968 9.56652 11.993 9.54452 12.015C9.52252 12.039 9.49052 12.051 9.44852 12.051ZM9.44822 12.051C9.42022 12.051 9.39922 12.039 9.38522 12.015C9.37122 11.993 9.36622 11.968 9.37022 11.94C9.37222 11.91 9.38422 11.884 9.40622 11.862C9.42822 11.838 9.46022 11.826 9.50222 11.826C9.55422 11.826 9.60922 11.807 9.66722 11.769C9.72522 11.731 9.78522 11.678 9.84722 11.61C9.90722 11.542 9.96922 11.462 10.0332 11.37C10.0972 11.278 10.1622 11.178 10.2282 11.07C10.2442 11.044 10.2662 11.033 10.2942 11.037C10.3222 11.041 10.3452 11.054 10.3632 11.076C10.3812 11.096 10.3822 11.119 10.3662 11.145C10.2802 11.295 10.1982 11.427 10.1202 11.541C10.0442 11.655 9.97022 11.75 9.89822 11.826C9.82422 11.9 9.75122 11.956 9.67922 11.994C9.60522 12.032 9.52822 12.051 9.44822 12.051ZM11.1402 11.979C11.1802 11.951 11.2202 11.925 11.2602 11.901C11.3002 11.875 11.3392 11.85 11.3772 11.826C11.4152 11.802 11.4512 11.781 11.4852 11.763C11.5212 11.743 11.5542 11.725 11.5842 11.709C11.6142 11.695 11.6382 11.695 11.6562 11.709C11.6742 11.723 11.6862 11.745 11.6922 11.775C11.7002 11.803 11.7002 11.831 11.6922 11.859C11.6862 11.885 11.6732 11.903 11.6532 11.913C11.6112 11.933 11.5682 11.956 11.5242 11.982C11.4802 12.008 11.4342 12.035 11.3862 12.063C11.3402 12.093 11.2932 12.123 11.2452 12.153C11.1972 12.185 11.1492 12.217 11.1012 12.249L11.1402 11.979ZM10.2612 13.557C10.1552 13.557 10.0682 13.527 10.0002 13.467C9.93422 13.409 9.90122 13.333 9.90122 13.239C9.90122 13.169 9.91522 13.099 9.94322 13.029C9.96922 12.961 10.0082 12.892 10.0602 12.822C10.1122 12.752 10.1772 12.68 10.2552 12.606C10.3352 12.534 10.4272 12.458 10.5312 12.378C10.5832 12.34 10.6322 12.304 10.6782 12.27C10.7262 12.236 10.7742 12.202 10.8222 12.168C10.8702 12.136 10.9202 12.103 10.9722 12.069L11.1522 11.511C11.0662 11.633 10.9802 11.734 10.8942 11.814C10.8102 11.894 10.7292 11.954 10.6512 11.994C10.5732 12.032 10.4992 12.051 10.4292 12.051C10.3612 12.051 10.3022 12.033 10.2522 11.997C10.2022 11.961 10.1632 11.91 10.1352 11.844C10.1072 11.778 10.0932 11.7 10.0932 11.61C10.0932 11.518 10.1072 11.419 10.1352 11.313C10.1632 11.207 10.2052 11.103 10.2612 11.001C10.3172 10.899 10.3852 10.806 10.4652 10.722C10.5452 10.638 10.6372 10.571 10.7412 10.521C10.8472 10.469 10.9632 10.443 11.0892 10.443C11.1292 10.443 11.1702 10.447 11.2122 10.455C11.2542 10.461 11.2972 10.471 11.3412 10.485C11.3852 10.499 11.4272 10.516 11.4672 10.536L11.4762 10.518C11.4862 10.494 11.5012 10.478 11.5212 10.47C11.5412 10.46 11.5672 10.455 11.5992 10.455C11.6612 10.455 11.7002 10.465 11.7162 10.485C11.7342 10.503 11.7362 10.532 11.7222 10.572L11.0112 12.75C10.9632 12.894 10.9142 13.017 10.8642 13.119C10.8142 13.221 10.7602 13.304 10.7022 13.368C10.6442 13.434 10.5782 13.482 10.5042 13.512C10.4322 13.542 10.3512 13.557 10.2612 13.557ZM10.3062 13.326C10.3662 13.326 10.4222 13.306 10.4742 13.266C10.5262 13.226 10.5752 13.162 10.6212 13.074C10.6692 12.988 10.7142 12.876 10.7562 12.738L10.8672 12.399C10.8392 12.417 10.8112 12.436 10.7832 12.456C10.7552 12.476 10.7272 12.496 10.6992 12.516C10.6712 12.536 10.6432 12.557 10.6152 12.579C10.5352 12.643 10.4662 12.704 10.4082 12.762C10.3522 12.82 10.3062 12.874 10.2702 12.924C10.2362 12.974 10.2102 13.021 10.1922 13.065C10.1762 13.111 10.1682 13.155 10.1682 13.197C10.1682 13.221 10.1732 13.243 10.1832 13.263C10.1932 13.283 10.2082 13.298 10.2282 13.308C10.2502 13.32 10.2762 13.326 10.3062 13.326ZM10.5162 11.811C10.5862 11.811 10.6662 11.775 10.7562 11.703C10.8482 11.629 10.9452 11.522 11.0472 11.382C11.1512 11.242 11.2562 11.07 11.3622 10.866L11.4012 10.746C11.3332 10.718 11.2692 10.7 11.2092 10.692C11.1512 10.684 11.0972 10.68 11.0472 10.68C10.9612 10.68 10.8822 10.7 10.8102 10.74C10.7402 10.78 10.6772 10.833 10.6212 10.899C10.5672 10.963 10.5212 11.035 10.4832 11.115C10.4452 11.193 10.4162 11.271 10.3962 11.349C10.3762 11.427 10.3662 11.498 10.3662 11.562C10.3662 11.612 10.3722 11.656 10.3842 11.694C10.3962 11.732 10.4132 11.761 10.4352 11.781C10.4592 11.801 10.4862 11.811 10.5162 11.811ZM13.1939 12.051C13.1279 12.051 13.0689 12.033 13.0169 11.997C12.9669 11.961 12.9279 11.91 12.8999 11.844C12.8719 11.778 12.8579 11.7 12.8579 11.61C12.8579 11.518 12.8719 11.419 12.8999 11.313C12.9279 11.207 12.9699 11.103 13.0259 11.001C13.0819 10.899 13.1499 10.806 13.2299 10.722C13.3099 10.638 13.4019 10.571 13.5059 10.521C13.6119 10.469 13.7279 10.443 13.8539 10.443C13.9299 10.443 14.0119 10.457 14.0999 10.485C14.1879 10.511 14.2669 10.548 14.3369 10.596L14.2829 10.803C14.1849 10.751 14.0979 10.718 14.0219 10.704C13.9459 10.688 13.8759 10.68 13.8119 10.68C13.7259 10.68 13.6469 10.7 13.5749 10.74C13.5049 10.78 13.4419 10.833 13.3859 10.899C13.3319 10.963 13.2859 11.035 13.2479 11.115C13.2099 11.193 13.1809 11.271 13.1609 11.349C13.1409 11.427 13.1309 11.498 13.1309 11.562C13.1309 11.612 13.1369 11.656 13.1489 11.694C13.1609 11.732 13.1779 11.761 13.1999 11.781C13.2239 11.801 13.2509 11.811 13.2809 11.811C13.3549 11.811 13.4389 11.771 13.5329 11.691C13.6269 11.609 13.7269 11.489 13.8329 11.331C13.9409 11.173 14.0509 10.981 14.1629 10.755L14.2739 10.866C14.1439 11.134 14.0149 11.356 13.8869 11.532C13.7609 11.706 13.6399 11.836 13.5239 11.922C13.4079 12.008 13.2979 12.051 13.1939 12.051ZM14.1179 12.051C14.0279 12.051 13.9609 12.034 13.9169 12C13.8749 11.968 13.8479 11.927 13.8359 11.877C13.8259 11.825 13.8259 11.771 13.8359 11.715C13.8459 11.657 13.8599 11.604 13.8779 11.556L14.2139 10.551C14.2279 10.511 14.2439 10.485 14.2619 10.473C14.2819 10.461 14.3109 10.455 14.3489 10.455C14.4109 10.455 14.4499 10.465 14.4659 10.485C14.4839 10.503 14.4859 10.532 14.4719 10.572L14.1419 11.553C14.1079 11.657 14.0919 11.729 14.0939 11.769C14.0979 11.807 14.1229 11.826 14.1689 11.826C14.1969 11.826 14.2179 11.838 14.2319 11.862C14.2459 11.884 14.2509 11.91 14.2469 11.94C14.2449 11.968 14.2329 11.993 14.2109 12.015C14.1909 12.039 14.1599 12.051 14.1179 12.051ZM14.1241 12.051C14.0921 12.051 14.0721 12.039 14.0641 12.015C14.0541 11.993 14.0541 11.968 14.0641 11.94C14.0721 11.91 14.0861 11.884 14.1061 11.862C14.1261 11.838 14.1481 11.826 14.1721 11.826C14.2081 11.826 14.2471 11.812 14.2891 11.784C14.3291 11.756 14.3711 11.715 14.4151 11.661C14.4571 11.607 14.5021 11.542 14.5501 11.466C14.5961 11.388 14.6441 11.3 14.6941 11.202C14.7841 11.03 14.8641 10.893 14.9341 10.791C15.0061 10.689 15.0721 10.613 15.1321 10.563C15.1921 10.513 15.2491 10.481 15.3031 10.467C15.3591 10.451 15.4151 10.443 15.4711 10.443C15.4911 10.443 15.5041 10.455 15.5101 10.479C15.5161 10.501 15.5151 10.527 15.5071 10.557C15.4991 10.585 15.4851 10.611 15.4651 10.635C15.4471 10.657 15.4231 10.668 15.3931 10.668C15.3711 10.668 15.3451 10.674 15.3151 10.686C15.2871 10.696 15.2541 10.72 15.2161 10.758C15.1801 10.794 15.1371 10.849 15.0871 10.923C15.0391 10.997 14.9831 11.096 14.9191 11.22C14.8251 11.408 14.7391 11.558 14.6611 11.67C14.5831 11.78 14.5121 11.863 14.4481 11.919C14.3841 11.973 14.3261 12.008 14.2741 12.024C14.2201 12.042 14.1701 12.051 14.1241 12.051ZM16.1311 12.051C16.0431 12.051 15.9771 12.034 15.9331 12C15.8911 11.968 15.8651 11.927 15.8551 11.877C15.8451 11.825 15.8451 11.771 15.8551 11.715C15.8651 11.657 15.8781 11.604 15.8941 11.556L16.0981 10.968C16.1161 10.916 16.1271 10.869 16.1311 10.827C16.1371 10.783 16.1301 10.748 16.1101 10.722C16.0921 10.696 16.0551 10.683 15.9991 10.683C15.9331 10.683 15.8591 10.712 15.7771 10.77C15.6971 10.828 15.6141 10.909 15.5281 11.013C15.4441 11.117 15.3601 11.241 15.2761 11.385C15.1921 11.527 15.1141 11.684 15.0421 11.856L15.0061 11.967C14.9981 11.993 14.9831 12.012 14.9611 12.024C14.9411 12.038 14.9081 12.045 14.8621 12.045C14.8301 12.045 14.8001 12.038 14.7721 12.024C14.7461 12.01 14.7391 11.984 14.7511 11.946L15.1411 10.74C15.1471 10.72 15.1461 10.703 15.1381 10.689C15.1321 10.675 15.1171 10.668 15.0931 10.668C15.0691 10.668 15.0521 10.657 15.0421 10.635C15.0341 10.611 15.0331 10.585 15.0391 10.557C15.0451 10.527 15.0591 10.501 15.0811 10.479C15.1031 10.455 15.1321 10.443 15.1681 10.443C15.2421 10.443 15.2961 10.457 15.3301 10.485C15.3661 10.511 15.3881 10.546 15.3961 10.59C15.4041 10.632 15.4041 10.677 15.3961 10.725C15.3881 10.773 15.3781 10.817 15.3661 10.857L15.3061 11.037C15.3681 10.941 15.4311 10.857 15.4951 10.785C15.5611 10.711 15.6271 10.649 15.6931 10.599C15.7591 10.547 15.8261 10.508 15.8941 10.482C15.9621 10.456 16.0301 10.443 16.0981 10.443C16.1901 10.443 16.2611 10.466 16.3111 10.512C16.3611 10.556 16.3891 10.622 16.3951 10.71C16.4011 10.798 16.3821 10.907 16.3381 11.037L16.1611 11.553C16.1251 11.657 16.1081 11.729 16.1101 11.769C16.1141 11.807 16.1401 11.826 16.1881 11.826C16.2161 11.826 16.2361 11.838 16.2481 11.862C16.2621 11.884 16.2671 11.91 16.2631 11.94C16.2611 11.968 16.2491 11.993 16.2271 12.015C16.2051 12.039 16.1731 12.051 16.1311 12.051ZM16.1308 12.051C16.1028 12.051 16.0818 12.039 16.0678 12.015C16.0538 11.993 16.0488 11.968 16.0528 11.94C16.0548 11.91 16.0668 11.884 16.0888 11.862C16.1108 11.838 16.1428 11.826 16.1848 11.826C16.2368 11.826 16.2918 11.807 16.3498 11.769C16.4078 11.731 16.4678 11.678 16.5298 11.61C16.5898 11.542 16.6518 11.462 16.7158 11.37C16.7798 11.278 16.8448 11.178 16.9108 11.07C16.9268 11.044 16.9488 11.033 16.9768 11.037C17.0048 11.041 17.0278 11.054 17.0458 11.076C17.0638 11.096 17.0648 11.119 17.0488 11.145C16.9628 11.295 16.8808 11.427 16.8028 11.541C16.7268 11.655 16.6528 11.75 16.5808 11.826C16.5068 11.9 16.4338 11.956 16.3618 11.994C16.2878 12.032 16.2108 12.051 16.1308 12.051ZM17.0758 12.051C17.0078 12.051 16.9478 12.033 16.8958 11.997C16.8458 11.961 16.8068 11.91 16.7788 11.844C16.7508 11.778 16.7368 11.7 16.7368 11.61C16.7368 11.518 16.7508 11.419 16.7788 11.313C16.8068 11.207 16.8488 11.103 16.9048 11.001C16.9608 10.899 17.0288 10.806 17.1088 10.722C17.1908 10.638 17.2838 10.571 17.3878 10.521C17.4918 10.469 17.6078 10.443 17.7358 10.443C17.7938 10.443 17.8558 10.451 17.9218 10.467C17.9898 10.483 18.0548 10.506 18.1168 10.536L18.6088 9.051C18.6208 9.011 18.6358 8.985 18.6538 8.973C18.6738 8.961 18.7038 8.955 18.7438 8.955C18.8058 8.955 18.8448 8.965 18.8608 8.985C18.8788 9.003 18.8808 9.032 18.8668 9.072L17.9998 11.691C17.9878 11.733 17.9838 11.765 17.9878 11.787C17.9918 11.807 18.0058 11.817 18.0298 11.817C18.0498 11.817 18.0688 11.811 18.0868 11.799C18.1048 11.787 18.1248 11.769 18.1468 11.745C18.1708 11.721 18.1988 11.69 18.2308 11.652C18.2468 11.632 18.2628 11.621 18.2788 11.619C18.2948 11.615 18.3138 11.621 18.3358 11.637C18.3678 11.657 18.3868 11.677 18.3928 11.697C18.4008 11.717 18.3988 11.737 18.3868 11.757C18.3448 11.823 18.3008 11.878 18.2548 11.922C18.2108 11.964 18.1638 11.995 18.1138 12.015C18.0658 12.035 18.0148 12.045 17.9608 12.045C17.8888 12.045 17.8338 12.027 17.7958 11.991C17.7578 11.955 17.7378 11.901 17.7358 11.829C17.7338 11.757 17.7488 11.668 17.7808 11.562C17.7828 11.556 17.7838 11.55 17.7838 11.544C17.7858 11.536 17.7878 11.529 17.7898 11.523C17.7038 11.641 17.6188 11.74 17.5348 11.82C17.4528 11.898 17.3728 11.956 17.2948 11.994C17.2168 12.032 17.1438 12.051 17.0758 12.051ZM17.0098 11.562C17.0098 11.612 17.0158 11.656 17.0278 11.694C17.0398 11.732 17.0568 11.761 17.0788 11.781C17.1028 11.801 17.1298 11.811 17.1598 11.811C17.2298 11.811 17.3108 11.775 17.4028 11.703C17.4948 11.629 17.5918 11.522 17.6938 11.382C17.7978 11.24 17.9028 11.067 18.0088 10.863L18.0448 10.746C17.9768 10.718 17.9128 10.7 17.8528 10.692C17.7948 10.684 17.7418 10.68 17.6938 10.68C17.6078 10.68 17.5288 10.7 17.4568 10.74C17.3848 10.78 17.3208 10.833 17.2648 10.899C17.2108 10.963 17.1648 11.035 17.1268 11.115C17.0888 11.193 17.0598 11.271 17.0398 11.349C17.0198 11.427 17.0098 11.498 17.0098 11.562ZM21.3791 12.057C21.3011 12.057 21.2261 12.048 21.1541 12.03C21.0841 12.014 21.0171 11.991 20.9531 11.961C20.8891 11.929 20.8301 11.892 20.7761 11.85C20.7241 11.808 20.6801 11.764 20.6441 11.718C20.6181 11.68 20.6071 11.648 20.6111 11.622C20.6151 11.594 20.6331 11.566 20.6651 11.538C20.6931 11.516 20.7181 11.506 20.7401 11.508C20.7641 11.51 20.7911 11.526 20.8211 11.556C20.8751 11.606 20.9301 11.649 20.9861 11.685C21.0421 11.721 21.1021 11.749 21.1661 11.769C21.2301 11.787 21.3011 11.796 21.3791 11.796C21.4771 11.796 21.5671 11.781 21.6491 11.751C21.7311 11.719 21.8021 11.675 21.8621 11.619C21.9221 11.561 21.9681 11.491 22.0001 11.409C22.0321 11.327 22.0481 11.236 22.0481 11.136C22.0481 11.06 22.0371 10.985 22.0151 10.911C21.9951 10.835 21.9671 10.761 21.9311 10.689C21.8951 10.617 21.8521 10.545 21.8021 10.473C21.7541 10.399 21.7011 10.325 21.6431 10.251C21.5851 10.177 21.5241 10.101 21.4601 10.023C21.2741 10.311 21.1091 10.561 20.9651 10.773C20.8231 10.985 20.6941 11.165 20.5781 11.313C20.4641 11.459 20.3581 11.58 20.2601 11.676C20.1641 11.77 20.0691 11.843 19.9751 11.895C19.8831 11.947 19.7891 11.983 19.6931 12.003C19.5971 12.023 19.4911 12.033 19.3751 12.033C19.3351 12.033 19.3101 12.022 19.3001 12C19.2901 11.978 19.2921 11.943 19.3061 11.895C19.3161 11.859 19.3331 11.833 19.3571 11.817C19.3791 11.801 19.4091 11.793 19.4471 11.793C19.5171 11.793 19.5831 11.785 19.6451 11.769C19.7071 11.753 19.7701 11.727 19.8341 11.691C19.8981 11.653 19.9651 11.602 20.0351 11.538C20.1051 11.472 20.1821 11.389 20.2661 11.289C20.3501 11.189 20.4421 11.07 20.5421 10.932C20.6441 10.792 20.7581 10.629 20.8841 10.443C21.0101 10.257 21.1511 10.044 21.3071 9.804C21.2771 9.756 21.2491 9.709 21.2231 9.663C21.1991 9.615 21.1771 9.568 21.1571 9.522C21.1391 9.474 21.1251 9.426 21.1151 9.378C21.1051 9.328 21.1001 9.278 21.1001 9.228C21.1001 9.134 21.1191 9.05 21.1571 8.976C21.1951 8.902 21.2471 8.844 21.3131 8.802C21.3791 8.76 21.4551 8.739 21.5411 8.739C21.6471 8.739 21.7341 8.772 21.8021 8.838C21.8701 8.902 21.9041 8.987 21.9041 9.093C21.9041 9.151 21.8941 9.213 21.8741 9.279C21.8541 9.343 21.8221 9.416 21.7781 9.498C21.7361 9.58 21.6791 9.678 21.6071 9.792C21.6511 9.852 21.6981 9.914 21.7481 9.978C21.8001 10.042 21.8531 10.109 21.9071 10.179C21.9611 10.249 22.0121 10.322 22.0601 10.398C22.1101 10.472 22.1541 10.549 22.1921 10.629C22.2301 10.707 22.2601 10.788 22.2821 10.872C22.3061 10.954 22.3181 11.037 22.3181 11.121C22.3181 11.261 22.2951 11.389 22.2491 11.505C22.2051 11.619 22.1411 11.718 22.0571 11.802C21.9731 11.884 21.8731 11.947 21.7571 11.991C21.6431 12.035 21.5171 12.057 21.3791 12.057ZM21.4601 9.564C21.5081 9.484 21.5461 9.417 21.5741 9.363C21.6021 9.307 21.6221 9.258 21.6341 9.216C21.6461 9.174 21.6521 9.136 21.6521 9.102C21.6521 9.062 21.6401 9.03 21.6161 9.006C21.5941 8.982 21.5651 8.97 21.5291 8.97C21.4931 8.97 21.4621 8.98 21.4361 9C21.4101 9.018 21.3901 9.046 21.3761 9.084C21.3621 9.12 21.3551 9.164 21.3551 9.216C21.3551 9.256 21.3591 9.296 21.3671 9.336C21.3771 9.374 21.3891 9.412 21.4031 9.45C21.4191 9.488 21.4381 9.526 21.4601 9.564ZM21.9558 12.051C21.9278 12.051 21.9068 12.039 21.8928 12.015C21.8788 11.993 21.8738 11.968 21.8778 11.94C21.8798 11.91 21.8918 11.884 21.9138 11.862C21.9358 11.838 21.9678 11.826 22.0098 11.826C22.0738 11.826 22.1538 11.809 22.2498 11.775C22.3438 11.739 22.4438 11.691 22.5498 11.631C22.6578 11.571 22.7608 11.504 22.8588 11.43C22.9488 11.364 23.0298 11.296 23.1018 11.226C23.1738 11.156 23.2308 11.087 23.2728 11.019C23.3168 10.951 23.3388 10.888 23.3388 10.83C23.3388 10.784 23.3288 10.748 23.3088 10.722C23.2888 10.696 23.2588 10.683 23.2188 10.683C23.1908 10.683 23.1698 10.671 23.1558 10.647C23.1438 10.623 23.1398 10.595 23.1438 10.563C23.1478 10.531 23.1608 10.503 23.1828 10.479C23.2068 10.455 23.2398 10.443 23.2818 10.443C23.3418 10.443 23.3968 10.456 23.4468 10.482C23.4968 10.506 23.5358 10.542 23.5638 10.59C23.5938 10.636 23.6088 10.692 23.6088 10.758C23.6088 10.848 23.5798 10.943 23.5218 11.043C23.4658 11.141 23.3908 11.239 23.2968 11.337C23.2028 11.433 23.0978 11.523 22.9818 11.607C22.8658 11.693 22.7448 11.77 22.6188 11.838C22.4948 11.904 22.3758 11.956 22.2618 11.994C22.1458 12.032 22.0438 12.051 21.9558 12.051ZM23.0848 12.051C22.9988 12.051 22.9238 12.034 22.8598 12C22.7958 11.966 22.7428 11.919 22.7008 11.859C22.6568 11.797 22.6248 11.727 22.6048 11.649C22.5828 11.571 22.5718 11.489 22.5718 11.403C22.5718 11.287 22.5878 11.173 22.6198 11.061C22.6498 10.947 22.6948 10.844 22.7548 10.752C22.8148 10.658 22.8898 10.583 22.9798 10.527C23.0678 10.471 23.1688 10.443 23.2828 10.443C23.3008 10.443 23.3128 10.455 23.3188 10.479C23.3228 10.503 23.3218 10.531 23.3158 10.563C23.3078 10.595 23.2968 10.623 23.2828 10.647C23.2668 10.671 23.2498 10.683 23.2318 10.683C23.1778 10.683 23.1298 10.699 23.0878 10.731C23.0458 10.763 23.0088 10.806 22.9768 10.86C22.9448 10.912 22.9188 10.971 22.8988 11.037C22.8768 11.101 22.8608 11.166 22.8508 11.232C22.8388 11.298 22.8328 11.359 22.8328 11.415C22.8328 11.473 22.8398 11.526 22.8538 11.574C22.8678 11.622 22.8898 11.664 22.9198 11.7C22.9478 11.736 22.9828 11.764 23.0248 11.784C23.0668 11.802 23.1158 11.811 23.1718 11.811C23.2738 11.811 23.3788 11.79 23.4868 11.748C23.5928 11.706 23.6998 11.648 23.8078 11.574C23.9158 11.5 24.0228 11.414 24.1288 11.316C24.2348 11.216 24.3368 11.109 24.4348 10.995C24.5328 10.879 24.6248 10.759 24.7108 10.635C24.7988 10.511 24.8788 10.388 24.9508 10.266C25.0228 10.144 25.0848 10.026 25.1368 9.912C25.1888 9.798 25.2288 9.693 25.2568 9.597C25.2868 9.499 25.3018 9.415 25.3018 9.345C25.3018 9.323 25.3138 9.306 25.3378 9.294C25.3638 9.282 25.3938 9.276 25.4278 9.276C25.4618 9.276 25.4908 9.282 25.5148 9.294C25.5408 9.306 25.5538 9.323 25.5538 9.345C25.5538 9.415 25.5388 9.501 25.5088 9.603C25.4788 9.703 25.4358 9.815 25.3798 9.939C25.3238 10.063 25.2568 10.192 25.1788 10.326C25.1008 10.46 25.0128 10.596 24.9148 10.734C24.8188 10.87 24.7148 11.002 24.6028 11.13C24.4908 11.258 24.3738 11.378 24.2518 11.49C24.1298 11.602 24.0038 11.7 23.8738 11.784C23.7458 11.868 23.6158 11.934 23.4838 11.982C23.3498 12.028 23.2168 12.051 23.0848 12.051ZM24.4378 12.051C24.3258 12.051 24.2368 12.017 24.1708 11.949C24.1068 11.879 24.0708 11.782 24.0628 11.658C24.0548 11.532 24.0778 11.385 24.1318 11.217L24.6598 9.612C24.7338 9.378 24.8158 9.208 24.9058 9.102C24.9978 8.996 25.1078 8.943 25.2358 8.943C25.2998 8.943 25.3548 8.96 25.4008 8.994C25.4488 9.028 25.4858 9.075 25.5118 9.135C25.5398 9.195 25.5538 9.266 25.5538 9.348C25.5538 9.386 25.5408 9.414 25.5148 9.432C25.4908 9.45 25.4618 9.459 25.4278 9.459C25.3938 9.459 25.3638 9.45 25.3378 9.432C25.3138 9.414 25.3018 9.386 25.3018 9.348C25.3018 9.314 25.2988 9.285 25.2928 9.261C25.2868 9.237 25.2768 9.218 25.2628 9.204C25.2488 9.19 25.2278 9.183 25.1998 9.183C25.1678 9.183 25.1368 9.197 25.1068 9.225C25.0788 9.251 25.0488 9.3 25.0168 9.372C24.9848 9.442 24.9458 9.542 24.8998 9.672L24.3778 11.268C24.3378 11.39 24.3158 11.493 24.3118 11.577C24.3098 11.661 24.3248 11.724 24.3568 11.766C24.3888 11.806 24.4348 11.826 24.4948 11.826C24.5228 11.826 24.5438 11.838 24.5578 11.862C24.5718 11.884 24.5768 11.91 24.5728 11.94C24.5688 11.968 24.5558 11.993 24.5338 12.015C24.5118 12.039 24.4798 12.051 24.4378 12.051ZM24.4394 12.051C24.4014 12.051 24.3764 12.039 24.3644 12.015C24.3524 11.993 24.3504 11.968 24.3584 11.94C24.3644 11.91 24.3804 11.884 24.4064 11.862C24.4304 11.838 24.4614 11.826 24.4994 11.826C24.5554 11.826 24.6264 11.802 24.7124 11.754C24.7984 11.706 24.8934 11.64 24.9974 11.556C25.1014 11.47 25.2094 11.371 25.3214 11.259C25.4354 11.147 25.5474 11.026 25.6574 10.896C25.7694 10.764 25.8744 10.629 25.9724 10.491C26.0724 10.353 26.1604 10.216 26.2364 10.08C26.3124 9.944 26.3724 9.814 26.4164 9.69C26.4604 9.564 26.4824 9.45 26.4824 9.348C26.4824 9.31 26.4944 9.282 26.5184 9.264C26.5444 9.244 26.5744 9.234 26.6084 9.234C26.6424 9.234 26.6714 9.244 26.6954 9.264C26.7214 9.282 26.7344 9.31 26.7344 9.348C26.7344 9.444 26.7144 9.551 26.6744 9.669C26.6364 9.785 26.5824 9.908 26.5124 10.038C26.4444 10.168 26.3644 10.3 26.2724 10.434C26.1804 10.566 26.0804 10.698 25.9724 10.83C25.8664 10.962 25.7564 11.088 25.6424 11.208C25.5284 11.328 25.4144 11.44 25.3004 11.544C25.1864 11.646 25.0764 11.735 24.9704 11.811C24.8644 11.887 24.7664 11.946 24.6764 11.988C24.5864 12.03 24.5074 12.051 24.4394 12.051ZM25.6184 12.051C25.5064 12.051 25.4174 12.017 25.3514 11.949C25.2874 11.879 25.2514 11.782 25.2434 11.658C25.2354 11.532 25.2584 11.385 25.3124 11.217L25.8404 9.612C25.9144 9.378 25.9964 9.208 26.0864 9.102C26.1784 8.996 26.2884 8.943 26.4164 8.943C26.4804 8.943 26.5354 8.96 26.5814 8.994C26.6294 9.028 26.6664 9.075 26.6924 9.135C26.7204 9.195 26.7344 9.266 26.7344 9.348C26.7344 9.386 26.7214 9.414 26.6954 9.432C26.6714 9.45 26.6424 9.459 26.6084 9.459C26.5744 9.459 26.5444 9.45 26.5184 9.432C26.4944 9.414 26.4824 9.386 26.4824 9.348C26.4824 9.314 26.4794 9.285 26.4734 9.261C26.4674 9.237 26.4574 9.218 26.4434 9.204C26.4294 9.19 26.4084 9.183 26.3804 9.183C26.3484 9.183 26.3174 9.197 26.2874 9.225C26.2594 9.251 26.2294 9.3 26.1974 9.372C26.1654 9.442 26.1264 9.542 26.0804 9.672L25.5584 11.268C25.5184 11.39 25.4964 11.493 25.4924 11.577C25.4904 11.661 25.5054 11.724 25.5374 11.766C25.5694 11.806 25.6154 11.826 25.6754 11.826C25.7034 11.826 25.7244 11.838 25.7384 11.862C25.7524 11.884 25.7574 11.91 25.7534 11.94C25.7494 11.968 25.7364 11.993 25.7144 12.015C25.6924 12.039 25.6604 12.051 25.6184 12.051ZM25.6201 12.051C25.5921 12.051 25.5711 12.039 25.5571 12.015C25.5431 11.993 25.5381 11.968 25.5421 11.94C25.5441 11.91 25.5561 11.884 25.5781 11.862C25.6001 11.838 25.6321 11.826 25.6741 11.826C25.7221 11.826 25.7771 11.802 25.8391 11.754C25.8991 11.706 25.9701 11.631 26.0521 11.529C26.1341 11.425 26.2311 11.29 26.3431 11.124C26.4551 10.956 26.5861 10.753 26.7361 10.515C26.7541 10.487 26.7771 10.475 26.8051 10.479C26.8351 10.483 26.8591 10.496 26.8771 10.518C26.8951 10.54 26.8961 10.564 26.8801 10.59C26.7101 10.878 26.5631 11.117 26.4391 11.307C26.3171 11.495 26.2101 11.644 26.1181 11.754C26.0261 11.862 25.9411 11.939 25.8631 11.985C25.7831 12.029 25.7021 12.051 25.6201 12.051ZM26.6101 12.051C26.5221 12.051 26.4561 12.035 26.4121 12.003C26.3701 11.971 26.3441 11.93 26.3341 11.88C26.3241 11.828 26.3241 11.774 26.3341 11.718C26.3441 11.66 26.3571 11.606 26.3731 11.556L26.7031 10.551C26.7171 10.511 26.7331 10.485 26.7511 10.473C26.7711 10.461 26.8001 10.455 26.8381 10.455C26.9001 10.455 26.9391 10.465 26.9551 10.485C26.9731 10.503 26.9751 10.532 26.9611 10.572L26.6401 11.553C26.6041 11.659 26.5871 11.731 26.5891 11.769C26.5931 11.807 26.6181 11.826 26.6641 11.826C26.6921 11.826 26.7131 11.838 26.7271 11.862C26.7411 11.884 26.7461 11.91 26.7421 11.94C26.7401 11.968 26.7281 11.993 26.7061 12.015C26.6841 12.039 26.6521 12.051 26.6101 12.051ZM27.0241 9.993C26.9841 9.993 26.9501 9.98 26.9221 9.954C26.8941 9.928 26.8801 9.89 26.8801 9.84C26.8801 9.786 26.8971 9.735 26.9311 9.687C26.9671 9.639 27.0221 9.615 27.0961 9.615C27.1381 9.615 27.1731 9.628 27.2011 9.654C27.2291 9.678 27.2431 9.716 27.2431 9.768C27.2431 9.822 27.2251 9.873 27.1891 9.921C27.1551 9.969 27.1001 9.993 27.0241 9.993ZM26.6017 12.051C26.5697 12.051 26.5497 12.039 26.5417 12.015C26.5317 11.993 26.5317 11.968 26.5417 11.94C26.5497 11.91 26.5637 11.884 26.5837 11.862C26.6037 11.838 26.6257 11.826 26.6497 11.826C26.6857 11.826 26.7247 11.812 26.7667 11.784C26.8067 11.756 26.8487 11.715 26.8927 11.661C26.9347 11.607 26.9797 11.542 27.0277 11.466C27.0737 11.388 27.1217 11.3 27.1717 11.202C27.2617 11.03 27.3417 10.893 27.4117 10.791C27.4837 10.689 27.5497 10.613 27.6097 10.563C27.6697 10.513 27.7267 10.481 27.7807 10.467C27.8367 10.451 27.8927 10.443 27.9487 10.443C27.9687 10.443 27.9817 10.455 27.9877 10.479C27.9937 10.501 27.9927 10.527 27.9847 10.557C27.9767 10.585 27.9627 10.611 27.9427 10.635C27.9247 10.657 27.9007 10.668 27.8707 10.668C27.8487 10.668 27.8227 10.674 27.7927 10.686C27.7647 10.696 27.7317 10.72 27.6937 10.758C27.6577 10.794 27.6147 10.849 27.5647 10.923C27.5167 10.997 27.4607 11.096 27.3967 11.22C27.3027 11.408 27.2167 11.558 27.1387 11.67C27.0607 11.78 26.9897 11.863 26.9257 11.919C26.8617 11.973 26.8037 12.008 26.7517 12.024C26.6977 12.042 26.6477 12.051 26.6017 12.051ZM28.6087 12.051C28.5207 12.051 28.4547 12.034 28.4107 12C28.3687 11.968 28.3427 11.927 28.3327 11.877C28.3227 11.825 28.3227 11.771 28.3327 11.715C28.3427 11.657 28.3557 11.604 28.3717 11.556L28.5757 10.968C28.5937 10.916 28.6047 10.869 28.6087 10.827C28.6147 10.783 28.6077 10.748 28.5877 10.722C28.5697 10.696 28.5327 10.683 28.4767 10.683C28.4107 10.683 28.3367 10.712 28.2547 10.77C28.1747 10.828 28.0917 10.909 28.0057 11.013C27.9217 11.117 27.8377 11.241 27.7537 11.385C27.6697 11.527 27.5917 11.684 27.5197 11.856L27.4837 11.967C27.4757 11.993 27.4607 12.012 27.4387 12.024C27.4187 12.038 27.3857 12.045 27.3397 12.045C27.3077 12.045 27.2777 12.038 27.2497 12.024C27.2237 12.01 27.2167 11.984 27.2287 11.946L27.6187 10.74C27.6247 10.72 27.6237 10.703 27.6157 10.689C27.6097 10.675 27.5947 10.668 27.5707 10.668C27.5467 10.668 27.5297 10.657 27.5197 10.635C27.5117 10.611 27.5107 10.585 27.5167 10.557C27.5227 10.527 27.5367 10.501 27.5587 10.479C27.5807 10.455 27.6097 10.443 27.6457 10.443C27.7197 10.443 27.7737 10.457 27.8077 10.485C27.8437 10.511 27.8657 10.546 27.8737 10.59C27.8817 10.632 27.8817 10.677 27.8737 10.725C27.8657 10.773 27.8557 10.817 27.8437 10.857L27.7837 11.037C27.8457 10.941 27.9087 10.857 27.9727 10.785C28.0387 10.711 28.1047 10.649 28.1707 10.599C28.2367 10.547 28.3037 10.508 28.3717 10.482C28.4397 10.456 28.5077 10.443 28.5757 10.443C28.6677 10.443 28.7387 10.466 28.7887 10.512C28.8387 10.556 28.8667 10.622 28.8727 10.71C28.8787 10.798 28.8597 10.907 28.8157 11.037L28.6387 11.553C28.6027 11.657 28.5857 11.729 28.5877 11.769C28.5917 11.807 28.6177 11.826 28.6657 11.826C28.6937 11.826 28.7137 11.838 28.7257 11.862C28.7397 11.884 28.7447 11.91 28.7407 11.94C28.7387 11.968 28.7267 11.993 28.7047 12.015C28.6827 12.039 28.6507 12.051 28.6087 12.051ZM28.6084 12.051C28.5804 12.051 28.5594 12.039 28.5454 12.015C28.5314 11.993 28.5264 11.968 28.5304 11.94C28.5324 11.91 28.5444 11.884 28.5664 11.862C28.5884 11.838 28.6204 11.826 28.6624 11.826C28.7144 11.826 28.7694 11.807 28.8274 11.769C28.8854 11.731 28.9454 11.678 29.0074 11.61C29.0674 11.542 29.1294 11.462 29.1934 11.37C29.2574 11.278 29.3224 11.178 29.3884 11.07C29.4044 11.044 29.4264 11.033 29.4544 11.037C29.4824 11.041 29.5054 11.054 29.5234 11.076C29.5414 11.096 29.5424 11.119 29.5264 11.145C29.4404 11.295 29.3584 11.427 29.2804 11.541C29.2044 11.655 29.1304 11.75 29.0584 11.826C28.9844 11.9 28.9114 11.956 28.8394 11.994C28.7654 12.032 28.6884 12.051 28.6084 12.051ZM30.3004 11.979C30.3404 11.951 30.3804 11.925 30.4204 11.901C30.4604 11.875 30.4994 11.85 30.5374 11.826C30.5754 11.802 30.6114 11.781 30.6454 11.763C30.6814 11.743 30.7144 11.725 30.7444 11.709C30.7744 11.695 30.7984 11.695 30.8164 11.709C30.8344 11.723 30.8464 11.745 30.8524 11.775C30.8604 11.803 30.8604 11.831 30.8524 11.859C30.8464 11.885 30.8334 11.903 30.8134 11.913C30.7714 11.933 30.7284 11.956 30.6844 11.982C30.6404 12.008 30.5944 12.035 30.5464 12.063C30.5004 12.093 30.4534 12.123 30.4054 12.153C30.3574 12.185 30.3094 12.217 30.2614 12.249L30.3004 11.979ZM29.4214 13.557C29.3154 13.557 29.2284 13.527 29.1604 13.467C29.0944 13.409 29.0614 13.333 29.0614 13.239C29.0614 13.169 29.0754 13.099 29.1034 13.029C29.1294 12.961 29.1684 12.892 29.2204 12.822C29.2724 12.752 29.3374 12.68 29.4154 12.606C29.4954 12.534 29.5874 12.458 29.6914 12.378C29.7434 12.34 29.7924 12.304 29.8384 12.27C29.8864 12.236 29.9344 12.202 29.9824 12.168C30.0304 12.136 30.0804 12.103 30.1324 12.069L30.3124 11.511C30.2264 11.633 30.1404 11.734 30.0544 11.814C29.9704 11.894 29.8894 11.954 29.8114 11.994C29.7334 12.032 29.6594 12.051 29.5894 12.051C29.5214 12.051 29.4624 12.033 29.4124 11.997C29.3624 11.961 29.3234 11.91 29.2954 11.844C29.2674 11.778 29.2534 11.7 29.2534 11.61C29.2534 11.518 29.2674 11.419 29.2954 11.313C29.3234 11.207 29.3654 11.103 29.4214 11.001C29.4774 10.899 29.5454 10.806 29.6254 10.722C29.7054 10.638 29.7974 10.571 29.9014 10.521C30.0074 10.469 30.1234 10.443 30.2494 10.443C30.2894 10.443 30.3304 10.447 30.3724 10.455C30.4144 10.461 30.4574 10.471 30.5014 10.485C30.5454 10.499 30.5874 10.516 30.6274 10.536L30.6364 10.518C30.6464 10.494 30.6614 10.478 30.6814 10.47C30.7014 10.46 30.7274 10.455 30.7594 10.455C30.8214 10.455 30.8604 10.465 30.8764 10.485C30.8944 10.503 30.8964 10.532 30.8824 10.572L30.1714 12.75C30.1234 12.894 30.0744 13.017 30.0244 13.119C29.9744 13.221 29.9204 13.304 29.8624 13.368C29.8044 13.434 29.7384 13.482 29.6644 13.512C29.5924 13.542 29.5114 13.557 29.4214 13.557ZM29.4664 13.326C29.5264 13.326 29.5824 13.306 29.6344 13.266C29.6864 13.226 29.7354 13.162 29.7814 13.074C29.8294 12.988 29.8744 12.876 29.9164 12.738L30.0274 12.399C29.9994 12.417 29.9714 12.436 29.9434 12.456C29.9154 12.476 29.8874 12.496 29.8594 12.516C29.8314 12.536 29.8034 12.557 29.7754 12.579C29.6954 12.643 29.6264 12.704 29.5684 12.762C29.5124 12.82 29.4664 12.874 29.4304 12.924C29.3964 12.974 29.3704 13.021 29.3524 13.065C29.3364 13.111 29.3284 13.155 29.3284 13.197C29.3284 13.221 29.3334 13.243 29.3434 13.263C29.3534 13.283 29.3684 13.298 29.3884 13.308C29.4104 13.32 29.4364 13.326 29.4664 13.326ZM29.6764 11.811C29.7464 11.811 29.8264 11.775 29.9164 11.703C30.0084 11.629 30.1054 11.522 30.2074 11.382C30.3114 11.242 30.4164 11.07 30.5224 10.866L30.5614 10.746C30.4934 10.718 30.4294 10.7 30.3694 10.692C30.3114 10.684 30.2574 10.68 30.2074 10.68C30.1214 10.68 30.0424 10.7 29.9704 10.74C29.9004 10.78 29.8374 10.833 29.7814 10.899C29.7274 10.963 29.6814 11.035 29.6434 11.115C29.6054 11.193 29.5764 11.271 29.5564 11.349C29.5364 11.427 29.5264 11.498 29.5264 11.562C29.5264 11.612 29.5324 11.656 29.5444 11.694C29.5564 11.732 29.5734 11.761 29.5954 11.781C29.6194 11.801 29.6464 11.811 29.6764 11.811Z" fill="black"/>
</svg>
