<svg width="32" height="34" viewBox="0 0 32 34" fill="none" xmlns="http://www.w3.org/2000/svg">
<path d="M1.504 24.048C1.504 23.968 1.528 23.902 1.576 23.85C1.624 23.798 1.686 23.758 1.762 23.73C1.838 23.702 1.912 23.688 1.984 23.688C2.152 23.688 2.278 23.718 2.362 23.778C2.446 23.838 2.488 23.928 2.488 24.048C2.488 24.32 2.48 24.564 2.464 24.78C2.452 24.992 2.436 25.198 2.416 25.398C2.4 25.594 2.384 25.8 2.368 26.016C2.352 26.232 2.34 26.48 2.332 26.76C2.328 26.872 2.282 26.954 2.194 27.006C2.106 27.062 1.986 27.09 1.834 27.09C1.694 27.09 1.588 27.07 1.516 27.03C1.444 26.99 1.396 26.942 1.372 26.886C1.348 26.826 1.336 26.766 1.336 26.706C1.336 26.67 1.34 26.582 1.348 26.442C1.36 26.302 1.374 26.13 1.39 25.926C1.406 25.722 1.422 25.506 1.438 25.278C1.458 25.05 1.474 24.828 1.486 24.612C1.498 24.396 1.504 24.208 1.504 24.048ZM1.486 22.734C1.486 22.622 1.51 22.524 1.558 22.44C1.606 22.356 1.67 22.292 1.75 22.248C1.834 22.2 1.926 22.176 2.026 22.176C2.198 22.176 2.328 22.204 2.416 22.26C2.508 22.312 2.57 22.376 2.602 22.452C2.634 22.528 2.65 22.6 2.65 22.668C2.65 22.836 2.592 22.97 2.476 23.07C2.364 23.166 2.218 23.214 2.038 23.214C1.874 23.214 1.74 23.174 1.636 23.094C1.536 23.01 1.486 22.89 1.486 22.734ZM3.6137 27.12C3.4577 27.12 3.3217 27.078 3.2057 26.994C3.0937 26.91 3.0377 26.796 3.0377 26.652C3.0377 26.54 3.0617 26.436 3.1097 26.34C3.1577 26.244 3.2277 26.166 3.3197 26.106C3.4157 26.042 3.5317 26.01 3.6677 26.01C3.8557 26.01 3.9957 26.06 4.0877 26.16C4.1797 26.26 4.2257 26.382 4.2257 26.526C4.2257 26.69 4.1657 26.83 4.0457 26.946C3.9297 27.062 3.7857 27.12 3.6137 27.12ZM5.06191 22.368C5.06991 22.264 5.10991 22.188 5.18191 22.14C5.25791 22.092 5.39791 22.068 5.60191 22.068C5.77791 22.068 5.89191 22.104 5.94391 22.176C5.99591 22.244 6.02191 22.326 6.02191 22.422C6.02191 22.518 6.00991 22.66 5.98591 22.848C5.96191 23.032 5.93391 23.286 5.90191 23.61C5.87391 23.93 5.84991 24.338 5.82991 24.834C5.84991 24.822 5.89191 24.792 5.95591 24.744C6.01991 24.692 6.09591 24.63 6.18391 24.558C6.27191 24.486 6.36791 24.408 6.47191 24.324C6.57591 24.24 6.67991 24.156 6.78391 24.072C6.88791 23.984 6.98591 23.904 7.07791 23.832C7.13791 23.78 7.19391 23.744 7.24591 23.724C7.29791 23.7 7.35791 23.688 7.42591 23.688C7.51391 23.688 7.58791 23.708 7.64791 23.748C7.70791 23.784 7.75391 23.832 7.78591 23.892C7.82191 23.948 7.84591 24.004 7.85791 24.06C7.87391 24.112 7.88191 24.156 7.88191 24.192C7.88191 24.232 7.87391 24.272 7.85791 24.312C7.84591 24.352 7.81391 24.392 7.76191 24.432C7.70991 24.472 7.64991 24.518 7.58191 24.57C7.51391 24.618 7.44191 24.672 7.36591 24.732C7.28991 24.788 7.21191 24.846 7.13191 24.906C7.05191 24.966 6.97391 25.024 6.89791 25.08C6.82191 25.136 6.74991 25.19 6.68191 25.242C6.73391 25.322 6.78791 25.41 6.84391 25.506C6.90391 25.602 6.96191 25.696 7.01791 25.788C7.06991 25.868 7.11791 25.936 7.16191 25.992C7.20591 26.048 7.24791 26.09 7.28791 26.118C7.33191 26.146 7.37791 26.16 7.42591 26.16C7.48191 26.16 7.53591 26.136 7.58791 26.088C7.64391 26.036 7.70191 25.974 7.76191 25.902C7.79391 25.862 7.82991 25.83 7.86991 25.806C7.90991 25.782 7.95191 25.77 7.99591 25.77C8.07191 25.77 8.14191 25.792 8.20591 25.836C8.26991 25.876 8.32191 25.928 8.36191 25.992C8.40191 26.056 8.42191 26.122 8.42191 26.19C8.42191 26.258 8.40391 26.324 8.36791 26.388C8.33191 26.452 8.28591 26.508 8.22991 26.556C8.15391 26.632 8.05991 26.708 7.94791 26.784C7.83991 26.86 7.72191 26.924 7.59391 26.976C7.46991 27.024 7.33991 27.048 7.20391 27.048C7.05191 27.048 6.91991 27.02 6.80791 26.964C6.69591 26.904 6.59391 26.824 6.50191 26.724C6.41391 26.624 6.32791 26.508 6.24391 26.376C6.14391 26.208 6.06391 26.064 6.00391 25.944C5.94391 25.82 5.87991 25.7 5.81191 25.584C5.80791 25.796 5.80191 26 5.79391 26.196C5.78591 26.392 5.77991 26.572 5.77591 26.736C5.77191 26.86 5.73391 26.946 5.66191 26.994C5.58991 27.038 5.47991 27.06 5.33191 27.06C5.14391 27.06 5.00791 27.038 4.92391 26.994C4.84391 26.946 4.80591 26.86 4.80991 26.736C4.83391 26.02 4.86591 25.288 4.90591 24.54C4.94591 23.788 4.99791 23.064 5.06191 22.368ZM9.29144 27.12C9.13544 27.12 8.99944 27.078 8.88344 26.994C8.77144 26.91 8.71544 26.796 8.71544 26.652C8.71544 26.54 8.73944 26.436 8.78744 26.34C8.83544 26.244 8.90544 26.166 8.99744 26.106C9.09344 26.042 9.20944 26.01 9.34544 26.01C9.53344 26.01 9.67344 26.06 9.76544 26.16C9.85744 26.26 9.90344 26.382 9.90344 26.526C9.90344 26.69 9.84344 26.83 9.72344 26.946C9.60744 27.062 9.46344 27.12 9.29144 27.12ZM10.6316 22.404C10.6356 22.276 10.6776 22.188 10.7576 22.14C10.8376 22.092 10.9556 22.068 11.1116 22.068C11.2756 22.068 11.3896 22.102 11.4536 22.17C11.5216 22.234 11.5556 22.308 11.5556 22.392C11.5556 22.472 11.5536 22.554 11.5496 22.638C11.5496 22.718 11.5496 22.82 11.5496 22.944C11.5496 23.064 11.5476 23.228 11.5436 23.436C11.5436 23.644 11.5416 23.914 11.5376 24.246C11.6176 24.13 11.7056 24.032 11.8016 23.952C11.8976 23.868 12.0036 23.804 12.1196 23.76C12.2396 23.716 12.3716 23.694 12.5156 23.694C12.7476 23.694 12.9296 23.742 13.0616 23.838C13.1936 23.93 13.2896 24.048 13.3496 24.192C13.4136 24.336 13.4536 24.486 13.4696 24.642C13.4896 24.798 13.5016 24.938 13.5056 25.062C13.5136 25.358 13.5076 25.604 13.4876 25.8C13.4716 25.996 13.4636 26.156 13.4636 26.28C13.4636 26.388 13.4676 26.484 13.4756 26.568C13.4836 26.648 13.4896 26.72 13.4936 26.784C13.4976 26.86 13.4596 26.928 13.3796 26.988C13.3036 27.044 13.1776 27.072 13.0016 27.072C12.8416 27.072 12.7296 27.046 12.6656 26.994C12.6016 26.942 12.5636 26.856 12.5516 26.736C12.5436 26.664 12.5396 26.568 12.5396 26.448C12.5436 26.324 12.5476 26.192 12.5516 26.052C12.5556 25.912 12.5596 25.776 12.5636 25.644C12.5716 25.508 12.5756 25.39 12.5756 25.29C12.5756 25.026 12.5556 24.842 12.5156 24.738C12.4756 24.63 12.3916 24.576 12.2636 24.576C12.1756 24.576 12.0856 24.608 11.9936 24.672C11.9056 24.732 11.8236 24.814 11.7476 24.918C11.6756 25.018 11.6176 25.132 11.5736 25.26C11.5616 25.516 11.5516 25.766 11.5436 26.01C11.5396 26.254 11.5336 26.472 11.5256 26.664C11.5216 26.792 11.4756 26.884 11.3876 26.94C11.3036 26.992 11.1836 27.018 11.0276 27.018C10.8676 27.018 10.7496 26.992 10.6736 26.94C10.5976 26.888 10.5556 26.822 10.5476 26.742C10.5316 26.646 10.5236 26.546 10.5236 26.442C10.5236 26.334 10.5256 26.23 10.5296 26.13C10.5376 25.97 10.5476 25.816 10.5596 25.668C10.5756 25.52 10.5996 25.364 10.6316 25.2C10.6276 24.796 10.6236 24.45 10.6196 24.162C10.6156 23.87 10.6136 23.626 10.6136 23.43C10.6136 23.234 10.6136 23.072 10.6136 22.944C10.6176 22.816 10.6196 22.71 10.6196 22.626C10.6236 22.542 10.6276 22.468 10.6316 22.404ZM14.641 27.12C14.485 27.12 14.349 27.078 14.233 26.994C14.121 26.91 14.065 26.796 14.065 26.652C14.065 26.54 14.089 26.436 14.137 26.34C14.185 26.244 14.255 26.166 14.347 26.106C14.443 26.042 14.559 26.01 14.695 26.01C14.883 26.01 15.023 26.06 15.115 26.16C15.207 26.26 15.253 26.382 15.253 26.526C15.253 26.69 15.193 26.83 15.073 26.946C14.957 27.062 14.813 27.12 14.641 27.12ZM16.8229 27.078C16.6429 27.078 16.4869 27.042 16.3549 26.97C16.2229 26.894 16.1129 26.79 16.0249 26.658C15.9409 26.526 15.8789 26.372 15.8389 26.196C15.7989 26.02 15.7789 25.83 15.7789 25.626C15.7789 25.322 15.7949 25.044 15.8269 24.792C15.8589 24.536 15.8989 24.28 15.9469 24.024C15.9589 23.94 16.0049 23.866 16.0849 23.802C16.1649 23.734 16.2909 23.7 16.4629 23.7C16.6389 23.7 16.7629 23.738 16.8349 23.814C16.9109 23.89 16.9409 23.986 16.9249 24.102C16.9009 24.25 16.8749 24.392 16.8469 24.528C16.8189 24.66 16.7949 24.804 16.7749 24.96C16.7549 25.112 16.7449 25.294 16.7449 25.506C16.7449 25.65 16.7549 25.774 16.7749 25.878C16.7949 25.982 16.8289 26.064 16.8769 26.124C16.9249 26.18 16.9909 26.208 17.0749 26.208C17.1589 26.208 17.2369 26.178 17.3089 26.118C17.3809 26.058 17.4469 25.98 17.5069 25.884C17.5669 25.788 17.6189 25.684 17.6629 25.572C17.7109 25.456 17.7489 25.344 17.7769 25.236C17.7689 25.012 17.7629 24.794 17.7589 24.582C17.7589 24.366 17.7629 24.174 17.7709 24.006C17.7789 23.918 17.8209 23.844 17.8969 23.784C17.9769 23.724 18.1009 23.694 18.2689 23.694C18.4209 23.694 18.5329 23.716 18.6049 23.76C18.6769 23.8 18.7249 23.854 18.7489 23.922C18.7729 23.99 18.7849 24.064 18.7849 24.144C18.7889 24.212 18.7889 24.284 18.7849 24.36C18.7849 24.436 18.7809 24.516 18.7729 24.6C18.7689 24.684 18.7609 24.768 18.7489 24.852C18.7369 24.936 18.7229 25.02 18.7069 25.104C18.7149 25.504 18.7169 25.834 18.7129 26.094C18.7089 26.354 18.7049 26.584 18.7009 26.784C18.6969 26.892 18.6509 26.968 18.5629 27.012C18.4789 27.056 18.3549 27.078 18.1909 27.078C18.0349 27.078 17.9249 27.048 17.8609 26.988C17.8009 26.928 17.7709 26.866 17.7709 26.802C17.7709 26.762 17.7749 26.72 17.7829 26.676C17.7909 26.632 17.7989 26.582 17.8069 26.526C17.8149 26.466 17.8169 26.4 17.8129 26.328C17.7769 26.404 17.7329 26.486 17.6809 26.574C17.6329 26.658 17.5709 26.74 17.4949 26.82C17.4229 26.896 17.3309 26.958 17.2189 27.006C17.1109 27.054 16.9789 27.078 16.8229 27.078ZM19.9086 27.12C19.7526 27.12 19.6166 27.078 19.5006 26.994C19.3886 26.91 19.3326 26.796 19.3326 26.652C19.3326 26.54 19.3566 26.436 19.4046 26.34C19.4526 26.244 19.5226 26.166 19.6146 26.106C19.7106 26.042 19.8266 26.01 19.9626 26.01C20.1506 26.01 20.2906 26.06 20.3826 26.16C20.4746 26.26 20.5206 26.382 20.5206 26.526C20.5206 26.69 20.4606 26.83 20.3406 26.946C20.2246 27.062 20.0806 27.12 19.9086 27.12ZM21.3568 22.368C21.3648 22.264 21.4048 22.188 21.4768 22.14C21.5528 22.092 21.6928 22.068 21.8968 22.068C22.0728 22.068 22.1868 22.104 22.2388 22.176C22.2908 22.244 22.3168 22.326 22.3168 22.422C22.3168 22.518 22.3048 22.66 22.2808 22.848C22.2568 23.032 22.2288 23.286 22.1968 23.61C22.1688 23.93 22.1448 24.338 22.1248 24.834C22.1448 24.822 22.1868 24.792 22.2508 24.744C22.3148 24.692 22.3908 24.63 22.4788 24.558C22.5668 24.486 22.6628 24.408 22.7668 24.324C22.8708 24.24 22.9748 24.156 23.0788 24.072C23.1828 23.984 23.2808 23.904 23.3728 23.832C23.4328 23.78 23.4888 23.744 23.5408 23.724C23.5928 23.7 23.6528 23.688 23.7208 23.688C23.8088 23.688 23.8828 23.708 23.9428 23.748C24.0028 23.784 24.0488 23.832 24.0808 23.892C24.1168 23.948 24.1408 24.004 24.1528 24.06C24.1688 24.112 24.1768 24.156 24.1768 24.192C24.1768 24.232 24.1688 24.272 24.1528 24.312C24.1408 24.352 24.1088 24.392 24.0568 24.432C24.0048 24.472 23.9448 24.518 23.8768 24.57C23.8088 24.618 23.7368 24.672 23.6608 24.732C23.5848 24.788 23.5068 24.846 23.4268 24.906C23.3468 24.966 23.2688 25.024 23.1928 25.08C23.1168 25.136 23.0448 25.19 22.9768 25.242C23.0288 25.322 23.0828 25.41 23.1388 25.506C23.1988 25.602 23.2568 25.696 23.3128 25.788C23.3648 25.868 23.4128 25.936 23.4568 25.992C23.5008 26.048 23.5428 26.09 23.5828 26.118C23.6268 26.146 23.6728 26.16 23.7208 26.16C23.7768 26.16 23.8308 26.136 23.8828 26.088C23.9388 26.036 23.9968 25.974 24.0568 25.902C24.0888 25.862 24.1248 25.83 24.1648 25.806C24.2048 25.782 24.2468 25.77 24.2908 25.77C24.3668 25.77 24.4368 25.792 24.5008 25.836C24.5648 25.876 24.6168 25.928 24.6568 25.992C24.6968 26.056 24.7168 26.122 24.7168 26.19C24.7168 26.258 24.6988 26.324 24.6628 26.388C24.6268 26.452 24.5808 26.508 24.5248 26.556C24.4488 26.632 24.3548 26.708 24.2428 26.784C24.1348 26.86 24.0168 26.924 23.8888 26.976C23.7648 27.024 23.6348 27.048 23.4988 27.048C23.3468 27.048 23.2148 27.02 23.1028 26.964C22.9908 26.904 22.8888 26.824 22.7968 26.724C22.7088 26.624 22.6228 26.508 22.5388 26.376C22.4388 26.208 22.3588 26.064 22.2988 25.944C22.2388 25.82 22.1748 25.7 22.1068 25.584C22.1028 25.796 22.0968 26 22.0888 26.196C22.0808 26.392 22.0748 26.572 22.0708 26.736C22.0668 26.86 22.0288 26.946 21.9568 26.994C21.8848 27.038 21.7748 27.06 21.6268 27.06C21.4388 27.06 21.3028 27.038 21.2188 26.994C21.1388 26.946 21.1008 26.86 21.1048 26.736C21.1288 26.02 21.1608 25.288 21.2008 24.54C21.2408 23.788 21.2928 23.064 21.3568 22.368ZM25.5864 27.12C25.4304 27.12 25.2944 27.078 25.1784 26.994C25.0664 26.91 25.0104 26.796 25.0104 26.652C25.0104 26.54 25.0344 26.436 25.0824 26.34C25.1304 26.244 25.2004 26.166 25.2924 26.106C25.3884 26.042 25.5044 26.01 25.6404 26.01C25.8284 26.01 25.9684 26.06 26.0604 26.16C26.1524 26.26 26.1984 26.382 26.1984 26.526C26.1984 26.69 26.1384 26.83 26.0184 26.946C25.9024 27.062 25.7584 27.12 25.5864 27.12ZM27.7683 27.078C27.5883 27.078 27.4323 27.042 27.3003 26.97C27.1683 26.894 27.0583 26.79 26.9703 26.658C26.8863 26.526 26.8243 26.372 26.7843 26.196C26.7443 26.02 26.7243 25.83 26.7243 25.626C26.7243 25.322 26.7403 25.044 26.7723 24.792C26.8043 24.536 26.8443 24.28 26.8923 24.024C26.9043 23.94 26.9503 23.866 27.0303 23.802C27.1103 23.734 27.2363 23.7 27.4083 23.7C27.5843 23.7 27.7083 23.738 27.7803 23.814C27.8563 23.89 27.8863 23.986 27.8703 24.102C27.8463 24.25 27.8203 24.392 27.7923 24.528C27.7643 24.66 27.7403 24.804 27.7203 24.96C27.7003 25.112 27.6903 25.294 27.6903 25.506C27.6903 25.65 27.7003 25.774 27.7203 25.878C27.7403 25.982 27.7743 26.064 27.8223 26.124C27.8703 26.18 27.9363 26.208 28.0203 26.208C28.1043 26.208 28.1823 26.178 28.2543 26.118C28.3263 26.058 28.3923 25.98 28.4523 25.884C28.5123 25.788 28.5643 25.684 28.6083 25.572C28.6563 25.456 28.6943 25.344 28.7223 25.236C28.7143 25.012 28.7083 24.794 28.7043 24.582C28.7043 24.366 28.7083 24.174 28.7163 24.006C28.7243 23.918 28.7663 23.844 28.8423 23.784C28.9223 23.724 29.0463 23.694 29.2143 23.694C29.3663 23.694 29.4783 23.716 29.5503 23.76C29.6223 23.8 29.6703 23.854 29.6943 23.922C29.7183 23.99 29.7303 24.064 29.7303 24.144C29.7343 24.212 29.7343 24.284 29.7303 24.36C29.7303 24.436 29.7263 24.516 29.7183 24.6C29.7143 24.684 29.7063 24.768 29.6943 24.852C29.6823 24.936 29.6683 25.02 29.6523 25.104C29.6603 25.504 29.6623 25.834 29.6583 26.094C29.6543 26.354 29.6503 26.584 29.6463 26.784C29.6423 26.892 29.5963 26.968 29.5083 27.012C29.4243 27.056 29.3003 27.078 29.1363 27.078C28.9803 27.078 28.8703 27.048 28.8063 26.988C28.7463 26.928 28.7163 26.866 28.7163 26.802C28.7163 26.762 28.7203 26.72 28.7283 26.676C28.7363 26.632 28.7443 26.582 28.7523 26.526C28.7603 26.466 28.7623 26.4 28.7583 26.328C28.7223 26.404 28.6783 26.486 28.6263 26.574C28.5783 26.658 28.5163 26.74 28.4403 26.82C28.3683 26.896 28.2763 26.958 28.1643 27.006C28.0563 27.054 27.9243 27.078 27.7683 27.078Z" fill="black"/>
<path d="M1.782 32.036C1.674 32.036 1.565 32.024 1.455 32C1.347 31.976 1.249 31.943 1.161 31.901C1.127 31.885 1.107 31.862 1.101 31.832C1.095 31.8 1.104 31.762 1.128 31.718C1.144 31.684 1.165 31.663 1.191 31.655C1.217 31.647 1.246 31.652 1.278 31.67C1.346 31.706 1.426 31.735 1.518 31.757C1.612 31.777 1.705 31.787 1.797 31.787C1.909 31.787 2.013 31.77 2.109 31.736C2.207 31.7 2.292 31.649 2.364 31.583C2.436 31.517 2.492 31.44 2.532 31.352C2.574 31.262 2.595 31.164 2.595 31.058C2.595 30.958 2.576 30.871 2.538 30.797C2.5 30.721 2.443 30.656 2.367 30.602C2.293 30.548 2.199 30.507 2.085 30.479C2.051 30.499 2.013 30.514 1.971 30.524C1.931 30.534 1.895 30.539 1.863 30.539C1.813 30.539 1.772 30.525 1.74 30.497C1.708 30.469 1.692 30.436 1.692 30.398C1.692 30.364 1.702 30.334 1.722 30.308C1.744 30.28 1.772 30.259 1.806 30.245C1.842 30.229 1.882 30.221 1.926 30.221C1.956 30.221 1.988 30.225 2.022 30.233C2.058 30.239 2.092 30.249 2.124 30.263C2.204 30.241 2.279 30.212 2.349 30.176C2.421 30.14 2.485 30.099 2.541 30.053C2.597 30.005 2.645 29.953 2.685 29.897C2.727 29.839 2.758 29.778 2.778 29.714C2.8 29.65 2.811 29.584 2.811 29.516C2.811 29.454 2.798 29.4 2.772 29.354C2.746 29.306 2.707 29.269 2.655 29.243C2.605 29.217 2.541 29.204 2.463 29.204C2.377 29.204 2.287 29.224 2.193 29.264C2.101 29.304 2.009 29.362 1.917 29.438C1.825 29.514 1.736 29.606 1.65 29.714C1.564 29.822 1.483 29.943 1.407 30.077C1.333 30.209 1.269 30.353 1.215 30.509L0.747 31.958C0.739 31.986 0.723 32.007 0.699 32.021C0.675 32.035 0.64 32.042 0.594 32.042C0.55 32.042 0.517 32.035 0.495 32.021C0.473 32.007 0.467 31.984 0.477 31.952L1.254 29.567C1.204 29.617 1.151 29.665 1.095 29.711C1.039 29.757 0.98 29.803 0.918 29.849C0.858 29.893 0.794 29.939 0.726 29.987C0.684 30.015 0.649 30.024 0.621 30.014C0.593 30.004 0.568 29.981 0.546 29.945C0.526 29.913 0.518 29.883 0.522 29.855C0.526 29.825 0.547 29.799 0.585 29.777C0.703 29.703 0.812 29.628 0.912 29.552C1.014 29.474 1.107 29.393 1.191 29.309C1.275 29.223 1.348 29.134 1.41 29.042C1.434 29.008 1.456 28.985 1.476 28.973C1.496 28.961 1.528 28.955 1.572 28.955C1.618 28.955 1.651 28.962 1.671 28.976C1.693 28.99 1.698 29.013 1.686 29.045L1.53 29.525C1.604 29.433 1.68 29.352 1.758 29.282C1.838 29.212 1.918 29.153 1.998 29.105C2.08 29.055 2.161 29.018 2.241 28.994C2.323 28.968 2.403 28.955 2.481 28.955C2.607 28.955 2.714 28.978 2.802 29.024C2.892 29.068 2.961 29.132 3.009 29.216C3.059 29.298 3.084 29.396 3.084 29.51C3.084 29.612 3.065 29.71 3.027 29.804C2.989 29.896 2.936 29.981 2.868 30.059C2.8 30.135 2.72 30.2 2.628 30.254C2.538 30.308 2.44 30.347 2.334 30.371L2.328 30.377C2.442 30.413 2.539 30.465 2.619 30.533C2.701 30.601 2.763 30.682 2.805 30.776C2.847 30.868 2.868 30.97 2.868 31.082C2.868 31.22 2.84 31.347 2.784 31.463C2.728 31.579 2.65 31.68 2.55 31.766C2.45 31.852 2.334 31.919 2.202 31.967C2.072 32.013 1.932 32.036 1.782 32.036ZM3.47337 32.045C3.38137 32.045 3.30937 32.023 3.25737 31.979C3.20737 31.933 3.18037 31.866 3.17637 31.778C3.17237 31.688 3.19137 31.579 3.23337 31.451L3.53337 30.551C3.54737 30.511 3.56337 30.485 3.58137 30.473C3.60137 30.461 3.63037 30.455 3.66837 30.455C3.73037 30.455 3.76937 30.465 3.78537 30.485C3.80337 30.503 3.80537 30.532 3.79137 30.572L3.47337 31.52C3.45537 31.57 3.44337 31.617 3.43737 31.661C3.43337 31.705 3.44037 31.74 3.45837 31.766C3.47837 31.792 3.51537 31.805 3.56937 31.805C3.63937 31.805 3.71537 31.775 3.79737 31.715C3.87937 31.655 3.96337 31.571 4.04937 31.463C4.13737 31.355 4.22337 31.228 4.30737 31.082C4.39137 30.934 4.46937 30.772 4.54137 30.596L4.55637 30.551C4.57037 30.511 4.58637 30.485 4.60437 30.473C4.62437 30.461 4.65337 30.455 4.69137 30.455C4.75337 30.455 4.79237 30.465 4.80837 30.485C4.82637 30.503 4.82837 30.532 4.81437 30.572L4.49037 31.553C4.45637 31.657 4.44037 31.729 4.44237 31.769C4.44437 31.807 4.46837 31.826 4.51437 31.826C4.54237 31.826 4.56337 31.838 4.57737 31.862C4.59137 31.884 4.59637 31.91 4.59237 31.94C4.59037 31.968 4.57837 31.993 4.55637 32.015C4.53437 32.039 4.50237 32.051 4.46037 32.051C4.37237 32.051 4.30637 32.034 4.26237 32C4.22037 31.968 4.19437 31.927 4.18437 31.877C4.17437 31.825 4.17437 31.771 4.18437 31.715C4.19437 31.657 4.20737 31.604 4.22337 31.556L4.25637 31.46C4.19637 31.554 4.13437 31.637 4.07037 31.709C4.00637 31.781 3.94037 31.842 3.87237 31.892C3.80637 31.942 3.73937 31.98 3.67137 32.006C3.60537 32.032 3.53937 32.045 3.47337 32.045ZM4.46482 32.051C4.43682 32.051 4.41582 32.039 4.40182 32.015C4.38782 31.993 4.38282 31.968 4.38682 31.94C4.38882 31.91 4.40082 31.884 4.42282 31.862C4.44482 31.838 4.47682 31.826 4.51882 31.826C4.56682 31.826 4.62182 31.802 4.68382 31.754C4.74382 31.706 4.81482 31.631 4.89682 31.529C4.97882 31.425 5.07582 31.29 5.18782 31.124C5.29982 30.956 5.43082 30.753 5.58082 30.515C5.59882 30.487 5.62182 30.475 5.64982 30.479C5.67982 30.483 5.70382 30.496 5.72182 30.518C5.73982 30.54 5.74082 30.564 5.72482 30.59C5.55482 30.878 5.40782 31.117 5.28382 31.307C5.16182 31.495 5.05482 31.644 4.96282 31.754C4.87082 31.862 4.78582 31.939 4.70782 31.985C4.62782 32.029 4.54682 32.051 4.46482 32.051ZM5.37082 33.557C5.26482 33.557 5.17782 33.527 5.10982 33.467C5.04382 33.409 5.01082 33.333 5.01082 33.239C5.01082 33.169 5.02382 33.099 5.04982 33.029C5.07782 32.961 5.11782 32.892 5.16982 32.822C5.22182 32.752 5.28682 32.68 5.36482 32.606C5.44482 32.534 5.53682 32.458 5.64082 32.378C5.69282 32.34 5.74182 32.304 5.78782 32.27C5.83582 32.236 5.88382 32.202 5.93182 32.168C5.97982 32.136 6.02982 32.103 6.08182 32.069L6.28882 31.43C6.22682 31.528 6.16282 31.615 6.09682 31.691C6.03282 31.767 5.96682 31.832 5.89882 31.886C5.83082 31.938 5.76282 31.977 5.69482 32.003C5.62682 32.031 5.55782 32.045 5.48782 32.045C5.39582 32.045 5.32382 32.023 5.27182 31.979C5.22182 31.933 5.19482 31.866 5.19082 31.778C5.18682 31.688 5.20582 31.579 5.24782 31.451L5.54782 30.551C5.56182 30.511 5.57782 30.485 5.59582 30.473C5.61582 30.461 5.64482 30.455 5.68282 30.455C5.74482 30.455 5.78382 30.465 5.79982 30.485C5.81782 30.503 5.81982 30.532 5.80582 30.572L5.48782 31.52C5.46982 31.57 5.45782 31.617 5.45182 31.661C5.44782 31.705 5.45482 31.74 5.47282 31.766C5.49282 31.792 5.52982 31.805 5.58382 31.805C5.65382 31.805 5.72982 31.775 5.81182 31.715C5.89382 31.655 5.97782 31.571 6.06382 31.463C6.15182 31.355 6.23782 31.228 6.32182 31.082C6.40582 30.934 6.48382 30.773 6.55582 30.599L6.57082 30.551C6.58482 30.511 6.60082 30.485 6.61882 30.473C6.63882 30.461 6.66782 30.455 6.70582 30.455C6.76782 30.455 6.80682 30.465 6.82282 30.485C6.84082 30.503 6.84282 30.532 6.82882 30.572L6.12082 32.75C6.07482 32.894 6.02582 33.017 5.97382 33.119C5.92382 33.221 5.86982 33.304 5.81182 33.368C5.75382 33.434 5.68782 33.482 5.61382 33.512C5.54182 33.542 5.46082 33.557 5.37082 33.557ZM5.41582 33.326C5.47582 33.326 5.53182 33.306 5.58382 33.266C5.63582 33.226 5.68482 33.163 5.73082 33.077C5.77682 32.991 5.82182 32.878 5.86582 32.738L5.97682 32.399C5.94882 32.417 5.92082 32.436 5.89282 32.456C5.86482 32.476 5.83682 32.496 5.80882 32.516C5.78082 32.536 5.75282 32.557 5.72482 32.579C5.64482 32.645 5.57582 32.706 5.51782 32.762C5.46182 32.82 5.41582 32.874 5.37982 32.924C5.34582 32.974 5.31982 33.021 5.30182 33.065C5.28582 33.111 5.27782 33.155 5.27782 33.197C5.27782 33.221 5.28282 33.243 5.29282 33.263C5.30282 33.283 5.31782 33.298 5.33782 33.308C5.35982 33.32 5.38582 33.326 5.41582 33.326ZM6.27094 32.195C6.24494 32.209 6.22194 32.209 6.20194 32.195C6.17994 32.183 6.16494 32.164 6.15694 32.138C6.14894 32.112 6.14894 32.085 6.15694 32.057C6.16294 32.029 6.17994 32.008 6.20794 31.994C6.33194 31.924 6.44594 31.852 6.54994 31.778C6.65394 31.702 6.75094 31.622 6.84094 31.538C6.93094 31.454 7.01494 31.364 7.09294 31.268C7.17294 31.172 7.24994 31.069 7.32394 30.959C7.39994 30.847 7.47494 30.727 7.54894 30.599C7.56894 30.569 7.59194 30.554 7.61794 30.554C7.64394 30.554 7.66394 30.566 7.67794 30.59C7.69194 30.614 7.68894 30.644 7.66894 30.68C7.59094 30.828 7.51294 30.964 7.43494 31.088C7.35694 31.212 7.27594 31.326 7.19194 31.43C7.10994 31.534 7.02294 31.63 6.93094 31.718C6.83694 31.806 6.73594 31.89 6.62794 31.97C6.51994 32.048 6.40094 32.123 6.27094 32.195ZM7.44994 32.051C7.36194 32.051 7.29594 32.035 7.25194 32.003C7.20994 31.971 7.18394 31.93 7.17394 31.88C7.16394 31.828 7.16394 31.774 7.17394 31.718C7.18394 31.66 7.19694 31.606 7.21294 31.556L7.54294 30.551C7.55694 30.511 7.57294 30.485 7.59094 30.473C7.61094 30.461 7.63994 30.455 7.67794 30.455C7.73994 30.455 7.77894 30.465 7.79494 30.485C7.81294 30.503 7.81494 30.532 7.80094 30.572L7.47994 31.553C7.44394 31.659 7.42694 31.731 7.42894 31.769C7.43294 31.807 7.45794 31.826 7.50394 31.826C7.53194 31.826 7.55294 31.838 7.56694 31.862C7.58094 31.884 7.58594 31.91 7.58194 31.94C7.57994 31.968 7.56794 31.993 7.54594 32.015C7.52394 32.039 7.49194 32.051 7.44994 32.051ZM7.86394 29.993C7.82394 29.993 7.78994 29.98 7.76194 29.954C7.73394 29.928 7.71994 29.89 7.71994 29.84C7.71994 29.786 7.73694 29.735 7.77094 29.687C7.80694 29.639 7.86194 29.615 7.93594 29.615C7.97794 29.615 8.01294 29.628 8.04094 29.654C8.06894 29.678 8.08294 29.716 8.08294 29.768C8.08294 29.822 8.06494 29.873 8.02894 29.921C7.99494 29.969 7.93994 29.993 7.86394 29.993ZM7.44152 32.051C7.40952 32.051 7.38952 32.039 7.38152 32.015C7.37152 31.993 7.37152 31.968 7.38152 31.94C7.38952 31.91 7.40352 31.884 7.42352 31.862C7.44352 31.838 7.46552 31.826 7.48952 31.826C7.52552 31.826 7.56452 31.812 7.60652 31.784C7.64652 31.756 7.68852 31.715 7.73252 31.661C7.77452 31.607 7.81952 31.542 7.86752 31.466C7.91352 31.388 7.96152 31.3 8.01152 31.202C8.10152 31.03 8.18152 30.893 8.25152 30.791C8.32352 30.689 8.38952 30.613 8.44952 30.563C8.50952 30.513 8.56652 30.481 8.62052 30.467C8.67652 30.451 8.73252 30.443 8.78852 30.443C8.80852 30.443 8.82152 30.455 8.82752 30.479C8.83352 30.501 8.83252 30.527 8.82452 30.557C8.81652 30.585 8.80252 30.611 8.78252 30.635C8.76452 30.657 8.74052 30.668 8.71052 30.668C8.68852 30.668 8.66252 30.674 8.63252 30.686C8.60452 30.696 8.57152 30.72 8.53352 30.758C8.49752 30.794 8.45452 30.849 8.40452 30.923C8.35652 30.997 8.30052 31.096 8.23652 31.22C8.14252 31.408 8.05652 31.558 7.97852 31.67C7.90052 31.78 7.82952 31.863 7.76552 31.919C7.70152 31.973 7.64352 32.008 7.59152 32.024C7.53752 32.042 7.48752 32.051 7.44152 32.051ZM9.44852 32.051C9.36052 32.051 9.29452 32.034 9.25052 32C9.20852 31.968 9.18252 31.927 9.17252 31.877C9.16252 31.825 9.16252 31.771 9.17252 31.715C9.18252 31.657 9.19552 31.604 9.21152 31.556L9.41552 30.968C9.43352 30.916 9.44452 30.869 9.44852 30.827C9.45452 30.783 9.44752 30.748 9.42752 30.722C9.40952 30.696 9.37252 30.683 9.31652 30.683C9.25052 30.683 9.17652 30.712 9.09452 30.77C9.01452 30.828 8.93152 30.909 8.84552 31.013C8.76152 31.117 8.67752 31.241 8.59352 31.385C8.50952 31.527 8.43152 31.684 8.35952 31.856L8.32352 31.967C8.31552 31.993 8.30052 32.012 8.27852 32.024C8.25852 32.038 8.22552 32.045 8.17952 32.045C8.14752 32.045 8.11752 32.038 8.08952 32.024C8.06352 32.01 8.05652 31.984 8.06852 31.946L8.45852 30.74C8.46452 30.72 8.46352 30.703 8.45552 30.689C8.44952 30.675 8.43452 30.668 8.41052 30.668C8.38652 30.668 8.36952 30.657 8.35952 30.635C8.35152 30.611 8.35052 30.585 8.35652 30.557C8.36252 30.527 8.37652 30.501 8.39852 30.479C8.42052 30.455 8.44952 30.443 8.48552 30.443C8.55952 30.443 8.61352 30.457 8.64752 30.485C8.68352 30.511 8.70552 30.546 8.71352 30.59C8.72152 30.632 8.72152 30.677 8.71352 30.725C8.70552 30.773 8.69552 30.817 8.68352 30.857L8.62352 31.037C8.68552 30.941 8.74852 30.857 8.81252 30.785C8.87852 30.711 8.94452 30.649 9.01052 30.599C9.07652 30.547 9.14352 30.508 9.21152 30.482C9.27952 30.456 9.34752 30.443 9.41552 30.443C9.50752 30.443 9.57852 30.466 9.62852 30.512C9.67852 30.556 9.70652 30.622 9.71252 30.71C9.71852 30.798 9.69952 30.907 9.65552 31.037L9.47852 31.553C9.44252 31.657 9.42552 31.729 9.42752 31.769C9.43152 31.807 9.45752 31.826 9.50552 31.826C9.53352 31.826 9.55352 31.838 9.56552 31.862C9.57952 31.884 9.58452 31.91 9.58052 31.94C9.57852 31.968 9.56652 31.993 9.54452 32.015C9.52252 32.039 9.49052 32.051 9.44852 32.051ZM9.44822 32.051C9.42022 32.051 9.39922 32.039 9.38522 32.015C9.37122 31.993 9.36622 31.968 9.37022 31.94C9.37222 31.91 9.38422 31.884 9.40622 31.862C9.42822 31.838 9.46022 31.826 9.50222 31.826C9.55422 31.826 9.60922 31.807 9.66722 31.769C9.72522 31.731 9.78522 31.678 9.84722 31.61C9.90722 31.542 9.96922 31.462 10.0332 31.37C10.0972 31.278 10.1622 31.178 10.2282 31.07C10.2442 31.044 10.2662 31.033 10.2942 31.037C10.3222 31.041 10.3452 31.054 10.3632 31.076C10.3812 31.096 10.3822 31.119 10.3662 31.145C10.2802 31.295 10.1982 31.427 10.1202 31.541C10.0442 31.655 9.97022 31.75 9.89822 31.826C9.82422 31.9 9.75122 31.956 9.67922 31.994C9.60522 32.032 9.52822 32.051 9.44822 32.051ZM11.1402 31.979C11.1802 31.951 11.2202 31.925 11.2602 31.901C11.3002 31.875 11.3392 31.85 11.3772 31.826C11.4152 31.802 11.4512 31.781 11.4852 31.763C11.5212 31.743 11.5542 31.725 11.5842 31.709C11.6142 31.695 11.6382 31.695 11.6562 31.709C11.6742 31.723 11.6862 31.745 11.6922 31.775C11.7002 31.803 11.7002 31.831 11.6922 31.859C11.6862 31.885 11.6732 31.903 11.6532 31.913C11.6112 31.933 11.5682 31.956 11.5242 31.982C11.4802 32.008 11.4342 32.035 11.3862 32.063C11.3402 32.093 11.2932 32.123 11.2452 32.153C11.1972 32.185 11.1492 32.217 11.1012 32.249L11.1402 31.979ZM10.2612 33.557C10.1552 33.557 10.0682 33.527 10.0002 33.467C9.93422 33.409 9.90122 33.333 9.90122 33.239C9.90122 33.169 9.91522 33.099 9.94322 33.029C9.96922 32.961 10.0082 32.892 10.0602 32.822C10.1122 32.752 10.1772 32.68 10.2552 32.606C10.3352 32.534 10.4272 32.458 10.5312 32.378C10.5832 32.34 10.6322 32.304 10.6782 32.27C10.7262 32.236 10.7742 32.202 10.8222 32.168C10.8702 32.136 10.9202 32.103 10.9722 32.069L11.1522 31.511C11.0662 31.633 10.9802 31.734 10.8942 31.814C10.8102 31.894 10.7292 31.954 10.6512 31.994C10.5732 32.032 10.4992 32.051 10.4292 32.051C10.3612 32.051 10.3022 32.033 10.2522 31.997C10.2022 31.961 10.1632 31.91 10.1352 31.844C10.1072 31.778 10.0932 31.7 10.0932 31.61C10.0932 31.518 10.1072 31.419 10.1352 31.313C10.1632 31.207 10.2052 31.103 10.2612 31.001C10.3172 30.899 10.3852 30.806 10.4652 30.722C10.5452 30.638 10.6372 30.571 10.7412 30.521C10.8472 30.469 10.9632 30.443 11.0892 30.443C11.1292 30.443 11.1702 30.447 11.2122 30.455C11.2542 30.461 11.2972 30.471 11.3412 30.485C11.3852 30.499 11.4272 30.516 11.4672 30.536L11.4762 30.518C11.4862 30.494 11.5012 30.478 11.5212 30.47C11.5412 30.46 11.5672 30.455 11.5992 30.455C11.6612 30.455 11.7002 30.465 11.7162 30.485C11.7342 30.503 11.7362 30.532 11.7222 30.572L11.0112 32.75C10.9632 32.894 10.9142 33.017 10.8642 33.119C10.8142 33.221 10.7602 33.304 10.7022 33.368C10.6442 33.434 10.5782 33.482 10.5042 33.512C10.4322 33.542 10.3512 33.557 10.2612 33.557ZM10.3062 33.326C10.3662 33.326 10.4222 33.306 10.4742 33.266C10.5262 33.226 10.5752 33.162 10.6212 33.074C10.6692 32.988 10.7142 32.876 10.7562 32.738L10.8672 32.399C10.8392 32.417 10.8112 32.436 10.7832 32.456C10.7552 32.476 10.7272 32.496 10.6992 32.516C10.6712 32.536 10.6432 32.557 10.6152 32.579C10.5352 32.643 10.4662 32.704 10.4082 32.762C10.3522 32.82 10.3062 32.874 10.2702 32.924C10.2362 32.974 10.2102 33.021 10.1922 33.065C10.1762 33.111 10.1682 33.155 10.1682 33.197C10.1682 33.221 10.1732 33.243 10.1832 33.263C10.1932 33.283 10.2082 33.298 10.2282 33.308C10.2502 33.32 10.2762 33.326 10.3062 33.326ZM10.5162 31.811C10.5862 31.811 10.6662 31.775 10.7562 31.703C10.8482 31.629 10.9452 31.522 11.0472 31.382C11.1512 31.242 11.2562 31.07 11.3622 30.866L11.4012 30.746C11.3332 30.718 11.2692 30.7 11.2092 30.692C11.1512 30.684 11.0972 30.68 11.0472 30.68C10.9612 30.68 10.8822 30.7 10.8102 30.74C10.7402 30.78 10.6772 30.833 10.6212 30.899C10.5672 30.963 10.5212 31.035 10.4832 31.115C10.4452 31.193 10.4162 31.271 10.3962 31.349C10.3762 31.427 10.3662 31.498 10.3662 31.562C10.3662 31.612 10.3722 31.656 10.3842 31.694C10.3962 31.732 10.4132 31.761 10.4352 31.781C10.4592 31.801 10.4862 31.811 10.5162 31.811ZM13.1939 32.051C13.1279 32.051 13.0689 32.033 13.0169 31.997C12.9669 31.961 12.9279 31.91 12.8999 31.844C12.8719 31.778 12.8579 31.7 12.8579 31.61C12.8579 31.518 12.8719 31.419 12.8999 31.313C12.9279 31.207 12.9699 31.103 13.0259 31.001C13.0819 30.899 13.1499 30.806 13.2299 30.722C13.3099 30.638 13.4019 30.571 13.5059 30.521C13.6119 30.469 13.7279 30.443 13.8539 30.443C13.9299 30.443 14.0119 30.457 14.0999 30.485C14.1879 30.511 14.2669 30.548 14.3369 30.596L14.2829 30.803C14.1849 30.751 14.0979 30.718 14.0219 30.704C13.9459 30.688 13.8759 30.68 13.8119 30.68C13.7259 30.68 13.6469 30.7 13.5749 30.74C13.5049 30.78 13.4419 30.833 13.3859 30.899C13.3319 30.963 13.2859 31.035 13.2479 31.115C13.2099 31.193 13.1809 31.271 13.1609 31.349C13.1409 31.427 13.1309 31.498 13.1309 31.562C13.1309 31.612 13.1369 31.656 13.1489 31.694C13.1609 31.732 13.1779 31.761 13.1999 31.781C13.2239 31.801 13.2509 31.811 13.2809 31.811C13.3549 31.811 13.4389 31.771 13.5329 31.691C13.6269 31.609 13.7269 31.489 13.8329 31.331C13.9409 31.173 14.0509 30.981 14.1629 30.755L14.2739 30.866C14.1439 31.134 14.0149 31.356 13.8869 31.532C13.7609 31.706 13.6399 31.836 13.5239 31.922C13.4079 32.008 13.2979 32.051 13.1939 32.051ZM14.1179 32.051C14.0279 32.051 13.9609 32.034 13.9169 32C13.8749 31.968 13.8479 31.927 13.8359 31.877C13.8259 31.825 13.8259 31.771 13.8359 31.715C13.8459 31.657 13.8599 31.604 13.8779 31.556L14.2139 30.551C14.2279 30.511 14.2439 30.485 14.2619 30.473C14.2819 30.461 14.3109 30.455 14.3489 30.455C14.4109 30.455 14.4499 30.465 14.4659 30.485C14.4839 30.503 14.4859 30.532 14.4719 30.572L14.1419 31.553C14.1079 31.657 14.0919 31.729 14.0939 31.769C14.0979 31.807 14.1229 31.826 14.1689 31.826C14.1969 31.826 14.2179 31.838 14.2319 31.862C14.2459 31.884 14.2509 31.91 14.2469 31.94C14.2449 31.968 14.2329 31.993 14.2109 32.015C14.1909 32.039 14.1599 32.051 14.1179 32.051ZM14.1241 32.051C14.0921 32.051 14.0721 32.039 14.0641 32.015C14.0541 31.993 14.0541 31.968 14.0641 31.94C14.0721 31.91 14.0861 31.884 14.1061 31.862C14.1261 31.838 14.1481 31.826 14.1721 31.826C14.2081 31.826 14.2471 31.812 14.2891 31.784C14.3291 31.756 14.3711 31.715 14.4151 31.661C14.4571 31.607 14.5021 31.542 14.5501 31.466C14.5961 31.388 14.6441 31.3 14.6941 31.202C14.7841 31.03 14.8641 30.893 14.9341 30.791C15.0061 30.689 15.0721 30.613 15.1321 30.563C15.1921 30.513 15.2491 30.481 15.3031 30.467C15.3591 30.451 15.4151 30.443 15.4711 30.443C15.4911 30.443 15.5041 30.455 15.5101 30.479C15.5161 30.501 15.5151 30.527 15.5071 30.557C15.4991 30.585 15.4851 30.611 15.4651 30.635C15.4471 30.657 15.4231 30.668 15.3931 30.668C15.3711 30.668 15.3451 30.674 15.3151 30.686C15.2871 30.696 15.2541 30.72 15.2161 30.758C15.1801 30.794 15.1371 30.849 15.0871 30.923C15.0391 30.997 14.9831 31.096 14.9191 31.22C14.8251 31.408 14.7391 31.558 14.6611 31.67C14.5831 31.78 14.5121 31.863 14.4481 31.919C14.3841 31.973 14.3261 32.008 14.2741 32.024C14.2201 32.042 14.1701 32.051 14.1241 32.051ZM16.1311 32.051C16.0431 32.051 15.9771 32.034 15.9331 32C15.8911 31.968 15.8651 31.927 15.8551 31.877C15.8451 31.825 15.8451 31.771 15.8551 31.715C15.8651 31.657 15.8781 31.604 15.8941 31.556L16.0981 30.968C16.1161 30.916 16.1271 30.869 16.1311 30.827C16.1371 30.783 16.1301 30.748 16.1101 30.722C16.0921 30.696 16.0551 30.683 15.9991 30.683C15.9331 30.683 15.8591 30.712 15.7771 30.77C15.6971 30.828 15.6141 30.909 15.5281 31.013C15.4441 31.117 15.3601 31.241 15.2761 31.385C15.1921 31.527 15.1141 31.684 15.0421 31.856L15.0061 31.967C14.9981 31.993 14.9831 32.012 14.9611 32.024C14.9411 32.038 14.9081 32.045 14.8621 32.045C14.8301 32.045 14.8001 32.038 14.7721 32.024C14.7461 32.01 14.7391 31.984 14.7511 31.946L15.1411 30.74C15.1471 30.72 15.1461 30.703 15.1381 30.689C15.1321 30.675 15.1171 30.668 15.0931 30.668C15.0691 30.668 15.0521 30.657 15.0421 30.635C15.0341 30.611 15.0331 30.585 15.0391 30.557C15.0451 30.527 15.0591 30.501 15.0811 30.479C15.1031 30.455 15.1321 30.443 15.1681 30.443C15.2421 30.443 15.2961 30.457 15.3301 30.485C15.3661 30.511 15.3881 30.546 15.3961 30.59C15.4041 30.632 15.4041 30.677 15.3961 30.725C15.3881 30.773 15.3781 30.817 15.3661 30.857L15.3061 31.037C15.3681 30.941 15.4311 30.857 15.4951 30.785C15.5611 30.711 15.6271 30.649 15.6931 30.599C15.7591 30.547 15.8261 30.508 15.8941 30.482C15.9621 30.456 16.0301 30.443 16.0981 30.443C16.1901 30.443 16.2611 30.466 16.3111 30.512C16.3611 30.556 16.3891 30.622 16.3951 30.71C16.4011 30.798 16.3821 30.907 16.3381 31.037L16.1611 31.553C16.1251 31.657 16.1081 31.729 16.1101 31.769C16.1141 31.807 16.1401 31.826 16.1881 31.826C16.2161 31.826 16.2361 31.838 16.2481 31.862C16.2621 31.884 16.2671 31.91 16.2631 31.94C16.2611 31.968 16.2491 31.993 16.2271 32.015C16.2051 32.039 16.1731 32.051 16.1311 32.051ZM16.1308 32.051C16.1028 32.051 16.0818 32.039 16.0678 32.015C16.0538 31.993 16.0488 31.968 16.0528 31.94C16.0548 31.91 16.0668 31.884 16.0888 31.862C16.1108 31.838 16.1428 31.826 16.1848 31.826C16.2368 31.826 16.2918 31.807 16.3498 31.769C16.4078 31.731 16.4678 31.678 16.5298 31.61C16.5898 31.542 16.6518 31.462 16.7158 31.37C16.7798 31.278 16.8448 31.178 16.9108 31.07C16.9268 31.044 16.9488 31.033 16.9768 31.037C17.0048 31.041 17.0278 31.054 17.0458 31.076C17.0638 31.096 17.0648 31.119 17.0488 31.145C16.9628 31.295 16.8808 31.427 16.8028 31.541C16.7268 31.655 16.6528 31.75 16.5808 31.826C16.5068 31.9 16.4338 31.956 16.3618 31.994C16.2878 32.032 16.2108 32.051 16.1308 32.051ZM17.0758 32.051C17.0078 32.051 16.9478 32.033 16.8958 31.997C16.8458 31.961 16.8068 31.91 16.7788 31.844C16.7508 31.778 16.7368 31.7 16.7368 31.61C16.7368 31.518 16.7508 31.419 16.7788 31.313C16.8068 31.207 16.8488 31.103 16.9048 31.001C16.9608 30.899 17.0288 30.806 17.1088 30.722C17.1908 30.638 17.2838 30.571 17.3878 30.521C17.4918 30.469 17.6078 30.443 17.7358 30.443C17.7938 30.443 17.8558 30.451 17.9218 30.467C17.9898 30.483 18.0548 30.506 18.1168 30.536L18.6088 29.051C18.6208 29.011 18.6358 28.985 18.6538 28.973C18.6738 28.961 18.7038 28.955 18.7438 28.955C18.8058 28.955 18.8448 28.965 18.8608 28.985C18.8788 29.003 18.8808 29.032 18.8668 29.072L17.9998 31.691C17.9878 31.733 17.9838 31.765 17.9878 31.787C17.9918 31.807 18.0058 31.817 18.0298 31.817C18.0498 31.817 18.0688 31.811 18.0868 31.799C18.1048 31.787 18.1248 31.769 18.1468 31.745C18.1708 31.721 18.1988 31.69 18.2308 31.652C18.2468 31.632 18.2628 31.621 18.2788 31.619C18.2948 31.615 18.3138 31.621 18.3358 31.637C18.3678 31.657 18.3868 31.677 18.3928 31.697C18.4008 31.717 18.3988 31.737 18.3868 31.757C18.3448 31.823 18.3008 31.878 18.2548 31.922C18.2108 31.964 18.1638 31.995 18.1138 32.015C18.0658 32.035 18.0148 32.045 17.9608 32.045C17.8888 32.045 17.8338 32.027 17.7958 31.991C17.7578 31.955 17.7378 31.901 17.7358 31.829C17.7338 31.757 17.7488 31.668 17.7808 31.562C17.7828 31.556 17.7838 31.55 17.7838 31.544C17.7858 31.536 17.7878 31.529 17.7898 31.523C17.7038 31.641 17.6188 31.74 17.5348 31.82C17.4528 31.898 17.3728 31.956 17.2948 31.994C17.2168 32.032 17.1438 32.051 17.0758 32.051ZM17.0098 31.562C17.0098 31.612 17.0158 31.656 17.0278 31.694C17.0398 31.732 17.0568 31.761 17.0788 31.781C17.1028 31.801 17.1298 31.811 17.1598 31.811C17.2298 31.811 17.3108 31.775 17.4028 31.703C17.4948 31.629 17.5918 31.522 17.6938 31.382C17.7978 31.24 17.9028 31.067 18.0088 30.863L18.0448 30.746C17.9768 30.718 17.9128 30.7 17.8528 30.692C17.7948 30.684 17.7418 30.68 17.6938 30.68C17.6078 30.68 17.5288 30.7 17.4568 30.74C17.3848 30.78 17.3208 30.833 17.2648 30.899C17.2108 30.963 17.1648 31.035 17.1268 31.115C17.0888 31.193 17.0598 31.271 17.0398 31.349C17.0198 31.427 17.0098 31.498 17.0098 31.562ZM21.3791 32.057C21.3011 32.057 21.2261 32.048 21.1541 32.03C21.0841 32.014 21.0171 31.991 20.9531 31.961C20.8891 31.929 20.8301 31.892 20.7761 31.85C20.7241 31.808 20.6801 31.764 20.6441 31.718C20.6181 31.68 20.6071 31.648 20.6111 31.622C20.6151 31.594 20.6331 31.566 20.6651 31.538C20.6931 31.516 20.7181 31.506 20.7401 31.508C20.7641 31.51 20.7911 31.526 20.8211 31.556C20.8751 31.606 20.9301 31.649 20.9861 31.685C21.0421 31.721 21.1021 31.749 21.1661 31.769C21.2301 31.787 21.3011 31.796 21.3791 31.796C21.4771 31.796 21.5671 31.781 21.6491 31.751C21.7311 31.719 21.8021 31.675 21.8621 31.619C21.9221 31.561 21.9681 31.491 22.0001 31.409C22.0321 31.327 22.0481 31.236 22.0481 31.136C22.0481 31.06 22.0371 30.985 22.0151 30.911C21.9951 30.835 21.9671 30.761 21.9311 30.689C21.8951 30.617 21.8521 30.545 21.8021 30.473C21.7541 30.399 21.7011 30.325 21.6431 30.251C21.5851 30.177 21.5241 30.101 21.4601 30.023C21.2741 30.311 21.1091 30.561 20.9651 30.773C20.8231 30.985 20.6941 31.165 20.5781 31.313C20.4641 31.459 20.3581 31.58 20.2601 31.676C20.1641 31.77 20.0691 31.843 19.9751 31.895C19.8831 31.947 19.7891 31.983 19.6931 32.003C19.5971 32.023 19.4911 32.033 19.3751 32.033C19.3351 32.033 19.3101 32.022 19.3001 32C19.2901 31.978 19.2921 31.943 19.3061 31.895C19.3161 31.859 19.3331 31.833 19.3571 31.817C19.3791 31.801 19.4091 31.793 19.4471 31.793C19.5171 31.793 19.5831 31.785 19.6451 31.769C19.7071 31.753 19.7701 31.727 19.8341 31.691C19.8981 31.653 19.9651 31.602 20.0351 31.538C20.1051 31.472 20.1821 31.389 20.2661 31.289C20.3501 31.189 20.4421 31.07 20.5421 30.932C20.6441 30.792 20.7581 30.629 20.8841 30.443C21.0101 30.257 21.1511 30.044 21.3071 29.804C21.2771 29.756 21.2491 29.709 21.2231 29.663C21.1991 29.615 21.1771 29.568 21.1571 29.522C21.1391 29.474 21.1251 29.426 21.1151 29.378C21.1051 29.328 21.1001 29.278 21.1001 29.228C21.1001 29.134 21.1191 29.05 21.1571 28.976C21.1951 28.902 21.2471 28.844 21.3131 28.802C21.3791 28.76 21.4551 28.739 21.5411 28.739C21.6471 28.739 21.7341 28.772 21.8021 28.838C21.8701 28.902 21.9041 28.987 21.9041 29.093C21.9041 29.151 21.8941 29.213 21.8741 29.279C21.8541 29.343 21.8221 29.416 21.7781 29.498C21.7361 29.58 21.6791 29.678 21.6071 29.792C21.6511 29.852 21.6981 29.914 21.7481 29.978C21.8001 30.042 21.8531 30.109 21.9071 30.179C21.9611 30.249 22.0121 30.322 22.0601 30.398C22.1101 30.472 22.1541 30.549 22.1921 30.629C22.2301 30.707 22.2601 30.788 22.2821 30.872C22.3061 30.954 22.3181 31.037 22.3181 31.121C22.3181 31.261 22.2951 31.389 22.2491 31.505C22.2051 31.619 22.1411 31.718 22.0571 31.802C21.9731 31.884 21.8731 31.947 21.7571 31.991C21.6431 32.035 21.5171 32.057 21.3791 32.057ZM21.4601 29.564C21.5081 29.484 21.5461 29.417 21.5741 29.363C21.6021 29.307 21.6221 29.258 21.6341 29.216C21.6461 29.174 21.6521 29.136 21.6521 29.102C21.6521 29.062 21.6401 29.03 21.6161 29.006C21.5941 28.982 21.5651 28.97 21.5291 28.97C21.4931 28.97 21.4621 28.98 21.4361 29C21.4101 29.018 21.3901 29.046 21.3761 29.084C21.3621 29.12 21.3551 29.164 21.3551 29.216C21.3551 29.256 21.3591 29.296 21.3671 29.336C21.3771 29.374 21.3891 29.412 21.4031 29.45C21.4191 29.488 21.4381 29.526 21.4601 29.564ZM21.9558 32.051C21.9278 32.051 21.9068 32.039 21.8928 32.015C21.8788 31.993 21.8738 31.968 21.8778 31.94C21.8798 31.91 21.8918 31.884 21.9138 31.862C21.9358 31.838 21.9678 31.826 22.0098 31.826C22.0738 31.826 22.1538 31.809 22.2498 31.775C22.3438 31.739 22.4438 31.691 22.5498 31.631C22.6578 31.571 22.7608 31.504 22.8588 31.43C22.9488 31.364 23.0298 31.296 23.1018 31.226C23.1738 31.156 23.2308 31.087 23.2728 31.019C23.3168 30.951 23.3388 30.888 23.3388 30.83C23.3388 30.784 23.3288 30.748 23.3088 30.722C23.2888 30.696 23.2588 30.683 23.2188 30.683C23.1908 30.683 23.1698 30.671 23.1558 30.647C23.1438 30.623 23.1398 30.595 23.1438 30.563C23.1478 30.531 23.1608 30.503 23.1828 30.479C23.2068 30.455 23.2398 30.443 23.2818 30.443C23.3418 30.443 23.3968 30.456 23.4468 30.482C23.4968 30.506 23.5358 30.542 23.5638 30.59C23.5938 30.636 23.6088 30.692 23.6088 30.758C23.6088 30.848 23.5798 30.943 23.5218 31.043C23.4658 31.141 23.3908 31.239 23.2968 31.337C23.2028 31.433 23.0978 31.523 22.9818 31.607C22.8658 31.693 22.7448 31.77 22.6188 31.838C22.4948 31.904 22.3758 31.956 22.2618 31.994C22.1458 32.032 22.0438 32.051 21.9558 32.051ZM23.0848 32.051C22.9988 32.051 22.9238 32.034 22.8598 32C22.7958 31.966 22.7428 31.919 22.7008 31.859C22.6568 31.797 22.6248 31.727 22.6048 31.649C22.5828 31.571 22.5718 31.489 22.5718 31.403C22.5718 31.287 22.5878 31.173 22.6198 31.061C22.6498 30.947 22.6948 30.844 22.7548 30.752C22.8148 30.658 22.8898 30.583 22.9798 30.527C23.0678 30.471 23.1688 30.443 23.2828 30.443C23.3008 30.443 23.3128 30.455 23.3188 30.479C23.3228 30.503 23.3218 30.531 23.3158 30.563C23.3078 30.595 23.2968 30.623 23.2828 30.647C23.2668 30.671 23.2498 30.683 23.2318 30.683C23.1778 30.683 23.1298 30.699 23.0878 30.731C23.0458 30.763 23.0088 30.806 22.9768 30.86C22.9448 30.912 22.9188 30.971 22.8988 31.037C22.8768 31.101 22.8608 31.166 22.8508 31.232C22.8388 31.298 22.8328 31.359 22.8328 31.415C22.8328 31.473 22.8398 31.526 22.8538 31.574C22.8678 31.622 22.8898 31.664 22.9198 31.7C22.9478 31.736 22.9828 31.764 23.0248 31.784C23.0668 31.802 23.1158 31.811 23.1718 31.811C23.2738 31.811 23.3788 31.79 23.4868 31.748C23.5928 31.706 23.6998 31.648 23.8078 31.574C23.9158 31.5 24.0228 31.414 24.1288 31.316C24.2348 31.216 24.3368 31.109 24.4348 30.995C24.5328 30.879 24.6248 30.759 24.7108 30.635C24.7988 30.511 24.8788 30.388 24.9508 30.266C25.0228 30.144 25.0848 30.026 25.1368 29.912C25.1888 29.798 25.2288 29.693 25.2568 29.597C25.2868 29.499 25.3018 29.415 25.3018 29.345C25.3018 29.323 25.3138 29.306 25.3378 29.294C25.3638 29.282 25.3938 29.276 25.4278 29.276C25.4618 29.276 25.4908 29.282 25.5148 29.294C25.5408 29.306 25.5538 29.323 25.5538 29.345C25.5538 29.415 25.5388 29.501 25.5088 29.603C25.4788 29.703 25.4358 29.815 25.3798 29.939C25.3238 30.063 25.2568 30.192 25.1788 30.326C25.1008 30.46 25.0128 30.596 24.9148 30.734C24.8188 30.87 24.7148 31.002 24.6028 31.13C24.4908 31.258 24.3738 31.378 24.2518 31.49C24.1298 31.602 24.0038 31.7 23.8738 31.784C23.7458 31.868 23.6158 31.934 23.4838 31.982C23.3498 32.028 23.2168 32.051 23.0848 32.051ZM24.4378 32.051C24.3258 32.051 24.2368 32.017 24.1708 31.949C24.1068 31.879 24.0708 31.782 24.0628 31.658C24.0548 31.532 24.0778 31.385 24.1318 31.217L24.6598 29.612C24.7338 29.378 24.8158 29.208 24.9058 29.102C24.9978 28.996 25.1078 28.943 25.2358 28.943C25.2998 28.943 25.3548 28.96 25.4008 28.994C25.4488 29.028 25.4858 29.075 25.5118 29.135C25.5398 29.195 25.5538 29.266 25.5538 29.348C25.5538 29.386 25.5408 29.414 25.5148 29.432C25.4908 29.45 25.4618 29.459 25.4278 29.459C25.3938 29.459 25.3638 29.45 25.3378 29.432C25.3138 29.414 25.3018 29.386 25.3018 29.348C25.3018 29.314 25.2988 29.285 25.2928 29.261C25.2868 29.237 25.2768 29.218 25.2628 29.204C25.2488 29.19 25.2278 29.183 25.1998 29.183C25.1678 29.183 25.1368 29.197 25.1068 29.225C25.0788 29.251 25.0488 29.3 25.0168 29.372C24.9848 29.442 24.9458 29.542 24.8998 29.672L24.3778 31.268C24.3378 31.39 24.3158 31.493 24.3118 31.577C24.3098 31.661 24.3248 31.724 24.3568 31.766C24.3888 31.806 24.4348 31.826 24.4948 31.826C24.5228 31.826 24.5438 31.838 24.5578 31.862C24.5718 31.884 24.5768 31.91 24.5728 31.94C24.5688 31.968 24.5558 31.993 24.5338 32.015C24.5118 32.039 24.4798 32.051 24.4378 32.051ZM24.4394 32.051C24.4014 32.051 24.3764 32.039 24.3644 32.015C24.3524 31.993 24.3504 31.968 24.3584 31.94C24.3644 31.91 24.3804 31.884 24.4064 31.862C24.4304 31.838 24.4614 31.826 24.4994 31.826C24.5554 31.826 24.6264 31.802 24.7124 31.754C24.7984 31.706 24.8934 31.64 24.9974 31.556C25.1014 31.47 25.2094 31.371 25.3214 31.259C25.4354 31.147 25.5474 31.026 25.6574 30.896C25.7694 30.764 25.8744 30.629 25.9724 30.491C26.0724 30.353 26.1604 30.216 26.2364 30.08C26.3124 29.944 26.3724 29.814 26.4164 29.69C26.4604 29.564 26.4824 29.45 26.4824 29.348C26.4824 29.31 26.4944 29.282 26.5184 29.264C26.5444 29.244 26.5744 29.234 26.6084 29.234C26.6424 29.234 26.6714 29.244 26.6954 29.264C26.7214 29.282 26.7344 29.31 26.7344 29.348C26.7344 29.444 26.7144 29.551 26.6744 29.669C26.6364 29.785 26.5824 29.908 26.5124 30.038C26.4444 30.168 26.3644 30.3 26.2724 30.434C26.1804 30.566 26.0804 30.698 25.9724 30.83C25.8664 30.962 25.7564 31.088 25.6424 31.208C25.5284 31.328 25.4144 31.44 25.3004 31.544C25.1864 31.646 25.0764 31.735 24.9704 31.811C24.8644 31.887 24.7664 31.946 24.6764 31.988C24.5864 32.03 24.5074 32.051 24.4394 32.051ZM25.6184 32.051C25.5064 32.051 25.4174 32.017 25.3514 31.949C25.2874 31.879 25.2514 31.782 25.2434 31.658C25.2354 31.532 25.2584 31.385 25.3124 31.217L25.8404 29.612C25.9144 29.378 25.9964 29.208 26.0864 29.102C26.1784 28.996 26.2884 28.943 26.4164 28.943C26.4804 28.943 26.5354 28.96 26.5814 28.994C26.6294 29.028 26.6664 29.075 26.6924 29.135C26.7204 29.195 26.7344 29.266 26.7344 29.348C26.7344 29.386 26.7214 29.414 26.6954 29.432C26.6714 29.45 26.6424 29.459 26.6084 29.459C26.5744 29.459 26.5444 29.45 26.5184 29.432C26.4944 29.414 26.4824 29.386 26.4824 29.348C26.4824 29.314 26.4794 29.285 26.4734 29.261C26.4674 29.237 26.4574 29.218 26.4434 29.204C26.4294 29.19 26.4084 29.183 26.3804 29.183C26.3484 29.183 26.3174 29.197 26.2874 29.225C26.2594 29.251 26.2294 29.3 26.1974 29.372C26.1654 29.442 26.1264 29.542 26.0804 29.672L25.5584 31.268C25.5184 31.39 25.4964 31.493 25.4924 31.577C25.4904 31.661 25.5054 31.724 25.5374 31.766C25.5694 31.806 25.6154 31.826 25.6754 31.826C25.7034 31.826 25.7244 31.838 25.7384 31.862C25.7524 31.884 25.7574 31.91 25.7534 31.94C25.7494 31.968 25.7364 31.993 25.7144 32.015C25.6924 32.039 25.6604 32.051 25.6184 32.051ZM25.6201 32.051C25.5921 32.051 25.5711 32.039 25.5571 32.015C25.5431 31.993 25.5381 31.968 25.5421 31.94C25.5441 31.91 25.5561 31.884 25.5781 31.862C25.6001 31.838 25.6321 31.826 25.6741 31.826C25.7221 31.826 25.7771 31.802 25.8391 31.754C25.8991 31.706 25.9701 31.631 26.0521 31.529C26.1341 31.425 26.2311 31.29 26.3431 31.124C26.4551 30.956 26.5861 30.753 26.7361 30.515C26.7541 30.487 26.7771 30.475 26.8051 30.479C26.8351 30.483 26.8591 30.496 26.8771 30.518C26.8951 30.54 26.8961 30.564 26.8801 30.59C26.7101 30.878 26.5631 31.117 26.4391 31.307C26.3171 31.495 26.2101 31.644 26.1181 31.754C26.0261 31.862 25.9411 31.939 25.8631 31.985C25.7831 32.029 25.7021 32.051 25.6201 32.051ZM26.6101 32.051C26.5221 32.051 26.4561 32.035 26.4121 32.003C26.3701 31.971 26.3441 31.93 26.3341 31.88C26.3241 31.828 26.3241 31.774 26.3341 31.718C26.3441 31.66 26.3571 31.606 26.3731 31.556L26.7031 30.551C26.7171 30.511 26.7331 30.485 26.7511 30.473C26.7711 30.461 26.8001 30.455 26.8381 30.455C26.9001 30.455 26.9391 30.465 26.9551 30.485C26.9731 30.503 26.9751 30.532 26.9611 30.572L26.6401 31.553C26.6041 31.659 26.5871 31.731 26.5891 31.769C26.5931 31.807 26.6181 31.826 26.6641 31.826C26.6921 31.826 26.7131 31.838 26.7271 31.862C26.7411 31.884 26.7461 31.91 26.7421 31.94C26.7401 31.968 26.7281 31.993 26.7061 32.015C26.6841 32.039 26.6521 32.051 26.6101 32.051ZM27.0241 29.993C26.9841 29.993 26.9501 29.98 26.9221 29.954C26.8941 29.928 26.8801 29.89 26.8801 29.84C26.8801 29.786 26.8971 29.735 26.9311 29.687C26.9671 29.639 27.0221 29.615 27.0961 29.615C27.1381 29.615 27.1731 29.628 27.2011 29.654C27.2291 29.678 27.2431 29.716 27.2431 29.768C27.2431 29.822 27.2251 29.873 27.1891 29.921C27.1551 29.969 27.1001 29.993 27.0241 29.993ZM26.6017 32.051C26.5697 32.051 26.5497 32.039 26.5417 32.015C26.5317 31.993 26.5317 31.968 26.5417 31.94C26.5497 31.91 26.5637 31.884 26.5837 31.862C26.6037 31.838 26.6257 31.826 26.6497 31.826C26.6857 31.826 26.7247 31.812 26.7667 31.784C26.8067 31.756 26.8487 31.715 26.8927 31.661C26.9347 31.607 26.9797 31.542 27.0277 31.466C27.0737 31.388 27.1217 31.3 27.1717 31.202C27.2617 31.03 27.3417 30.893 27.4117 30.791C27.4837 30.689 27.5497 30.613 27.6097 30.563C27.6697 30.513 27.7267 30.481 27.7807 30.467C27.8367 30.451 27.8927 30.443 27.9487 30.443C27.9687 30.443 27.9817 30.455 27.9877 30.479C27.9937 30.501 27.9927 30.527 27.9847 30.557C27.9767 30.585 27.9627 30.611 27.9427 30.635C27.9247 30.657 27.9007 30.668 27.8707 30.668C27.8487 30.668 27.8227 30.674 27.7927 30.686C27.7647 30.696 27.7317 30.72 27.6937 30.758C27.6577 30.794 27.6147 30.849 27.5647 30.923C27.5167 30.997 27.4607 31.096 27.3967 31.22C27.3027 31.408 27.2167 31.558 27.1387 31.67C27.0607 31.78 26.9897 31.863 26.9257 31.919C26.8617 31.973 26.8037 32.008 26.7517 32.024C26.6977 32.042 26.6477 32.051 26.6017 32.051ZM28.6087 32.051C28.5207 32.051 28.4547 32.034 28.4107 32C28.3687 31.968 28.3427 31.927 28.3327 31.877C28.3227 31.825 28.3227 31.771 28.3327 31.715C28.3427 31.657 28.3557 31.604 28.3717 31.556L28.5757 30.968C28.5937 30.916 28.6047 30.869 28.6087 30.827C28.6147 30.783 28.6077 30.748 28.5877 30.722C28.5697 30.696 28.5327 30.683 28.4767 30.683C28.4107 30.683 28.3367 30.712 28.2547 30.77C28.1747 30.828 28.0917 30.909 28.0057 31.013C27.9217 31.117 27.8377 31.241 27.7537 31.385C27.6697 31.527 27.5917 31.684 27.5197 31.856L27.4837 31.967C27.4757 31.993 27.4607 32.012 27.4387 32.024C27.4187 32.038 27.3857 32.045 27.3397 32.045C27.3077 32.045 27.2777 32.038 27.2497 32.024C27.2237 32.01 27.2167 31.984 27.2287 31.946L27.6187 30.74C27.6247 30.72 27.6237 30.703 27.6157 30.689C27.6097 30.675 27.5947 30.668 27.5707 30.668C27.5467 30.668 27.5297 30.657 27.5197 30.635C27.5117 30.611 27.5107 30.585 27.5167 30.557C27.5227 30.527 27.5367 30.501 27.5587 30.479C27.5807 30.455 27.6097 30.443 27.6457 30.443C27.7197 30.443 27.7737 30.457 27.8077 30.485C27.8437 30.511 27.8657 30.546 27.8737 30.59C27.8817 30.632 27.8817 30.677 27.8737 30.725C27.8657 30.773 27.8557 30.817 27.8437 30.857L27.7837 31.037C27.8457 30.941 27.9087 30.857 27.9727 30.785C28.0387 30.711 28.1047 30.649 28.1707 30.599C28.2367 30.547 28.3037 30.508 28.3717 30.482C28.4397 30.456 28.5077 30.443 28.5757 30.443C28.6677 30.443 28.7387 30.466 28.7887 30.512C28.8387 30.556 28.8667 30.622 28.8727 30.71C28.8787 30.798 28.8597 30.907 28.8157 31.037L28.6387 31.553C28.6027 31.657 28.5857 31.729 28.5877 31.769C28.5917 31.807 28.6177 31.826 28.6657 31.826C28.6937 31.826 28.7137 31.838 28.7257 31.862C28.7397 31.884 28.7447 31.91 28.7407 31.94C28.7387 31.968 28.7267 31.993 28.7047 32.015C28.6827 32.039 28.6507 32.051 28.6087 32.051ZM28.6084 32.051C28.5804 32.051 28.5594 32.039 28.5454 32.015C28.5314 31.993 28.5264 31.968 28.5304 31.94C28.5324 31.91 28.5444 31.884 28.5664 31.862C28.5884 31.838 28.6204 31.826 28.6624 31.826C28.7144 31.826 28.7694 31.807 28.8274 31.769C28.8854 31.731 28.9454 31.678 29.0074 31.61C29.0674 31.542 29.1294 31.462 29.1934 31.37C29.2574 31.278 29.3224 31.178 29.3884 31.07C29.4044 31.044 29.4264 31.033 29.4544 31.037C29.4824 31.041 29.5054 31.054 29.5234 31.076C29.5414 31.096 29.5424 31.119 29.5264 31.145C29.4404 31.295 29.3584 31.427 29.2804 31.541C29.2044 31.655 29.1304 31.75 29.0584 31.826C28.9844 31.9 28.9114 31.956 28.8394 31.994C28.7654 32.032 28.6884 32.051 28.6084 32.051ZM30.3004 31.979C30.3404 31.951 30.3804 31.925 30.4204 31.901C30.4604 31.875 30.4994 31.85 30.5374 31.826C30.5754 31.802 30.6114 31.781 30.6454 31.763C30.6814 31.743 30.7144 31.725 30.7444 31.709C30.7744 31.695 30.7984 31.695 30.8164 31.709C30.8344 31.723 30.8464 31.745 30.8524 31.775C30.8604 31.803 30.8604 31.831 30.8524 31.859C30.8464 31.885 30.8334 31.903 30.8134 31.913C30.7714 31.933 30.7284 31.956 30.6844 31.982C30.6404 32.008 30.5944 32.035 30.5464 32.063C30.5004 32.093 30.4534 32.123 30.4054 32.153C30.3574 32.185 30.3094 32.217 30.2614 32.249L30.3004 31.979ZM29.4214 33.557C29.3154 33.557 29.2284 33.527 29.1604 33.467C29.0944 33.409 29.0614 33.333 29.0614 33.239C29.0614 33.169 29.0754 33.099 29.1034 33.029C29.1294 32.961 29.1684 32.892 29.2204 32.822C29.2724 32.752 29.3374 32.68 29.4154 32.606C29.4954 32.534 29.5874 32.458 29.6914 32.378C29.7434 32.34 29.7924 32.304 29.8384 32.27C29.8864 32.236 29.9344 32.202 29.9824 32.168C30.0304 32.136 30.0804 32.103 30.1324 32.069L30.3124 31.511C30.2264 31.633 30.1404 31.734 30.0544 31.814C29.9704 31.894 29.8894 31.954 29.8114 31.994C29.7334 32.032 29.6594 32.051 29.5894 32.051C29.5214 32.051 29.4624 32.033 29.4124 31.997C29.3624 31.961 29.3234 31.91 29.2954 31.844C29.2674 31.778 29.2534 31.7 29.2534 31.61C29.2534 31.518 29.2674 31.419 29.2954 31.313C29.3234 31.207 29.3654 31.103 29.4214 31.001C29.4774 30.899 29.5454 30.806 29.6254 30.722C29.7054 30.638 29.7974 30.571 29.9014 30.521C30.0074 30.469 30.1234 30.443 30.2494 30.443C30.2894 30.443 30.3304 30.447 30.3724 30.455C30.4144 30.461 30.4574 30.471 30.5014 30.485C30.5454 30.499 30.5874 30.516 30.6274 30.536L30.6364 30.518C30.6464 30.494 30.6614 30.478 30.6814 30.47C30.7014 30.46 30.7274 30.455 30.7594 30.455C30.8214 30.455 30.8604 30.465 30.8764 30.485C30.8944 30.503 30.8964 30.532 30.8824 30.572L30.1714 32.75C30.1234 32.894 30.0744 33.017 30.0244 33.119C29.9744 33.221 29.9204 33.304 29.8624 33.368C29.8044 33.434 29.7384 33.482 29.6644 33.512C29.5924 33.542 29.5114 33.557 29.4214 33.557ZM29.4664 33.326C29.5264 33.326 29.5824 33.306 29.6344 33.266C29.6864 33.226 29.7354 33.162 29.7814 33.074C29.8294 32.988 29.8744 32.876 29.9164 32.738L30.0274 32.399C29.9994 32.417 29.9714 32.436 29.9434 32.456C29.9154 32.476 29.8874 32.496 29.8594 32.516C29.8314 32.536 29.8034 32.557 29.7754 32.579C29.6954 32.643 29.6264 32.704 29.5684 32.762C29.5124 32.82 29.4664 32.874 29.4304 32.924C29.3964 32.974 29.3704 33.021 29.3524 33.065C29.3364 33.111 29.3284 33.155 29.3284 33.197C29.3284 33.221 29.3334 33.243 29.3434 33.263C29.3534 33.283 29.3684 33.298 29.3884 33.308C29.4104 33.32 29.4364 33.326 29.4664 33.326ZM29.6764 31.811C29.7464 31.811 29.8264 31.775 29.9164 31.703C30.0084 31.629 30.1054 31.522 30.2074 31.382C30.3114 31.242 30.4164 31.07 30.5224 30.866L30.5614 30.746C30.4934 30.718 30.4294 30.7 30.3694 30.692C30.3114 30.684 30.2574 30.68 30.2074 30.68C30.1214 30.68 30.0424 30.7 29.9704 30.74C29.9004 30.78 29.8374 30.833 29.7814 30.899C29.7274 30.963 29.6814 31.035 29.6434 31.115C29.6054 31.193 29.5764 31.271 29.5564 31.349C29.5364 31.427 29.5264 31.498 29.5264 31.562C29.5264 31.612 29.5324 31.656 29.5444 31.694C29.5564 31.732 29.5734 31.761 29.5954 31.781C29.6194 31.801 29.6464 31.811 29.6764 31.811Z" fill="black"/>
<path d="M3.93066 6.24219L6.40115 5.58022C8.06057 5.13558 9.76624 6.12036 10.2109 7.77977L11.5348 12.7207C11.9795 14.3802 13.6851 15.3649 15.3445 14.9203L27.9307 11.5479" stroke="#0302D9" stroke-width="1.03688" stroke-linecap="round"/>
<path d="M17.2683 2.19922H24.0859M13.2936 3.27066H24.6647M10.7705 4.58404H25.0103M11.1161 5.72461H25.3214M11.3581 6.79605H25.6324M11.6691 7.86749H25.9089M11.9456 8.90437H26.1854M12.2308 9.94124H26.451M12.5332 11.0127H24.1917M13.0171 12.0496H20.3098M14.2268 12.9828H16.8379" stroke="#B70000" stroke-width="0.345626"/>
<path d="M22.4872 1.57575L22.4872 11.2187M21.4157 1.4375L21.4157 11.5298M20.1024 1.57575L20.1024 11.8409M18.9618 1.92151L18.9618 12.1174M17.8904 2.19801L17.8904 12.4282M16.8189 2.43995L16.8189 12.8432M15.782 2.75101L15.782 12.8432M14.7452 3.02752L14.7452 7.93535L14.7452 12.8432M13.6737 3.33859L13.6737 3.34926M12.6368 3.68422L12.6368 10.1475M11.7037 4.06441L11.7037 6.67551M13.6737 12.1174L13.6737 3.54582M23.4549 10.9422L23.4549 2.05963M24.5609 10.6657L24.5609 4.34076M25.4941 10.3892L25.4941 7.58965" stroke="#B70000" stroke-width="0.345626"/>
<path d="M18.0288 14.917C18.5822 14.9173 19.0308 15.3665 19.0308 15.9199C19.0305 16.4731 18.582 16.9216 18.0288 16.9219C17.4754 16.9219 17.0261 16.4733 17.0259 15.9199C17.0259 15.3664 17.4752 14.917 18.0288 14.917Z" stroke="#0302D9" stroke-width="0.553002"/>
<path d="M25.771 12.8428C26.3243 12.843 26.7729 13.2923 26.7729 13.8457C26.7727 14.3989 26.3242 14.8474 25.771 14.8477C25.2176 14.8477 24.7683 14.399 24.7681 13.8457C24.7681 13.2921 25.2174 12.8428 25.771 12.8428Z" stroke="#0302D9" stroke-width="0.553002"/>
<path d="M21.2143 1.41643C22.6552 1.03039 24.1363 1.88556 24.5225 3.32645L26.3555 10.1672L15.9888 12.9449C14.5478 13.3309 13.0667 12.4758 12.6805 11.0349L10.8476 4.19419L21.2143 1.41643Z" stroke="#0302D9" stroke-width="1.16814"/>
<path d="M7 20C9 15.5 16 20.5 24 17" stroke="url(#paint0_linear_1900_80)" stroke-width="0.2"/>
<path d="M11 20.2953C12.0588 17.9129 15.7647 20.56 20 18.707" stroke="url(#paint1_linear_1900_80)" stroke-width="0.105882"/>
<defs>
<linearGradient id="paint0_linear_1900_80" x1="15.5" y1="17" x2="15.5" y2="20" gradientUnits="userSpaceOnUse">
<stop/>
<stop offset="1" stop-opacity="0"/>
</linearGradient>
<linearGradient id="paint1_linear_1900_80" x1="15.5" y1="18.707" x2="15.5" y2="20.2953" gradientUnits="userSpaceOnUse">
<stop/>
<stop offset="1" stop-opacity="0"/>
</linearGradient>
</defs>
</svg>
